<svg width="74" height="74" viewBox="0 0 74 74" fill="none" xmlns="http://www.w3.org/2000/svg">
<path opacity="0.1" fill-rule="evenodd" clip-rule="evenodd" d="M37 72C56.33 72 72 56.33 72 37C72 17.67 56.33 2 37 2C17.67 2 2 17.67 2 37C2 56.33 17.67 72 37 72Z" stroke="#3DD598" stroke-width="3"/>
<path d="M7.64661 56.07C13.8895 65.6596 24.7043 72 37 72C56.33 72 72 56.33 72 37C72 17.67 56.33 2 37 2" stroke="#3DD598" stroke-width="3" stroke-linecap="round" stroke-linejoin="round"/>
<path d="M19.738 29.968H28.414V31.84L23.554 43H20.8L25.894 32.056H19.738V29.968ZM36.3803 38.248V32.776L32.7803 38.248H36.3803ZM36.2183 43V40.444H29.9363V38.464L35.8043 30.04H38.7383V38.248H40.3223V40.444H38.7383V43H36.2183ZM52.2407 40.3C52.2407 39.376 51.9047 38.914 51.2327 38.914C50.5607 38.914 50.2247 39.376 50.2247 40.3C50.2247 41.212 50.5607 41.668 51.2327 41.668C51.9047 41.668 52.2407 41.212 52.2407 40.3ZM51.2507 43.18C50.4107 43.18 49.7207 42.928 49.1807 42.424C48.6527 41.908 48.3887 41.2 48.3887 40.3C48.3887 39.388 48.6527 38.68 49.1807 38.176C49.7207 37.66 50.4047 37.402 51.2327 37.402C52.0727 37.402 52.7567 37.66 53.2847 38.176C53.8247 38.68 54.0947 39.388 54.0947 40.3C54.0947 41.2 53.8307 41.908 53.3027 42.424C52.7747 42.928 52.0907 43.18 51.2507 43.18ZM43.0967 43L50.1527 30.4H52.6187L45.5447 43H43.0967ZM45.4907 33.118C45.4907 32.194 45.1487 31.732 44.4647 31.732C43.7927 31.732 43.4567 32.194 43.4567 33.118C43.4567 34.03 43.7927 34.486 44.4647 34.486C45.1487 34.486 45.4907 34.03 45.4907 33.118ZM42.4127 35.224C41.8847 34.708 41.6207 34 41.6207 33.1C41.6207 32.2 41.8847 31.498 42.4127 30.994C42.9527 30.478 43.6367 30.22 44.4647 30.22C45.3047 30.22 45.9887 30.478 46.5167 30.994C47.0567 31.498 47.3267 32.2 47.3267 33.1C47.3267 34 47.0627 34.708 46.5347 35.224C46.0067 35.74 45.3227 35.998 44.4827 35.998C43.6427 35.998 42.9527 35.74 42.4127 35.224Z" fill="#171725"/>
</svg>
