<svg width="74" height="74" viewBox="0 0 74 74" fill="none" xmlns="http://www.w3.org/2000/svg">
<path opacity="0.1" fill-rule="evenodd" clip-rule="evenodd" d="M37 72C56.33 72 72 56.33 72 37C72 17.67 56.33 2 37 2C17.67 2 2 17.67 2 37C2 56.33 17.67 72 37 72Z" stroke="#FF974A" stroke-width="3"/>
<path d="M66.3871 17.9819C60.1495 8.36325 49.3179 2 37 2" stroke="#FF974A" stroke-width="3" stroke-linecap="round" stroke-linejoin="round"/>
<path d="M22.746 40.156C23.898 39.196 24.816 38.398 25.5 37.762C26.184 37.114 26.754 36.442 27.21 35.746C27.666 35.05 27.894 34.366 27.894 33.694C27.894 33.082 27.75 32.602 27.462 32.254C27.174 31.906 26.73 31.732 26.13 31.732C25.53 31.732 25.068 31.936 24.744 32.344C24.42 32.74 24.252 33.286 24.24 33.982H21.792C21.84 32.542 22.266 31.45 23.07 30.706C23.886 29.962 24.918 29.59 26.166 29.59C27.534 29.59 28.584 29.956 29.316 30.688C30.048 31.408 30.414 32.362 30.414 33.55C30.414 34.486 30.162 35.38 29.658 36.232C29.154 37.084 28.578 37.828 27.93 38.464C27.282 39.088 26.436 39.844 25.392 40.732H30.702V42.82H21.81V40.948L22.746 40.156ZM39.0939 33.154C38.9739 32.65 38.7639 32.272 38.4639 32.02C38.1759 31.768 37.7559 31.642 37.2039 31.642C36.3759 31.642 35.7639 31.978 35.3679 32.65C34.9839 33.31 34.7859 34.39 34.7739 35.89C35.0619 35.41 35.4819 35.038 36.0339 34.774C36.5859 34.498 37.1859 34.36 37.8339 34.36C38.6139 34.36 39.3039 34.528 39.9039 34.864C40.5039 35.2 40.9719 35.692 41.3079 36.34C41.6439 36.976 41.8119 37.744 41.8119 38.644C41.8119 39.496 41.6379 40.258 41.2899 40.93C40.9539 41.59 40.4559 42.106 39.7959 42.478C39.1359 42.85 38.3499 43.036 37.4379 43.036C36.1899 43.036 35.2059 42.76 34.4859 42.208C33.7779 41.656 33.2799 40.888 32.9919 39.904C32.7159 38.908 32.5779 37.684 32.5779 36.232C32.5779 34.036 32.9559 32.38 33.7119 31.264C34.4679 30.136 35.6619 29.572 37.2939 29.572C38.5539 29.572 39.5319 29.914 40.2279 30.598C40.9239 31.282 41.3259 32.134 41.4339 33.154H39.0939ZM37.2579 36.43C36.6219 36.43 36.0879 36.616 35.6559 36.988C35.2239 37.36 35.0079 37.9 35.0079 38.608C35.0079 39.316 35.2059 39.874 35.6019 40.282C36.0099 40.69 36.5799 40.894 37.3119 40.894C37.9599 40.894 38.4699 40.696 38.8419 40.3C39.2259 39.904 39.4179 39.37 39.4179 38.698C39.4179 38.002 39.2319 37.45 38.8599 37.042C38.4999 36.634 37.9659 36.43 37.2579 36.43ZM43.5156 33.1C43.5156 32.188 43.7796 31.474 44.3076 30.958C44.8476 30.442 45.5376 30.184 46.3776 30.184C47.2176 30.184 47.9016 30.442 48.4296 30.958C48.9696 31.474 49.2396 32.188 49.2396 33.1C49.2396 34.024 48.9696 34.744 48.4296 35.26C47.9016 35.776 47.2176 36.034 46.3776 36.034C45.5376 36.034 44.8476 35.776 44.3076 35.26C43.7796 34.744 43.5156 34.024 43.5156 33.1ZM55.0716 30.4L47.9976 43H45.5496L52.6056 30.4H55.0716ZM46.3596 31.696C45.6996 31.696 45.3696 32.164 45.3696 33.1C45.3696 34.048 45.6996 34.522 46.3596 34.522C46.6836 34.522 46.9356 34.408 47.1156 34.18C47.2956 33.94 47.3856 33.58 47.3856 33.1C47.3856 32.164 47.0436 31.696 46.3596 31.696ZM51.4176 40.282C51.4176 39.358 51.6816 38.644 52.2096 38.14C52.7496 37.624 53.4396 37.366 54.2796 37.366C55.1196 37.366 55.7976 37.624 56.3136 38.14C56.8416 38.644 57.1056 39.358 57.1056 40.282C57.1056 41.206 56.8416 41.926 56.3136 42.442C55.7976 42.958 55.1196 43.216 54.2796 43.216C53.4276 43.216 52.7376 42.958 52.2096 42.442C51.6816 41.926 51.4176 41.206 51.4176 40.282ZM54.2616 38.878C53.5776 38.878 53.2356 39.346 53.2356 40.282C53.2356 41.23 53.5776 41.704 54.2616 41.704C54.9336 41.704 55.2696 41.23 55.2696 40.282C55.2696 39.346 54.9336 38.878 54.2616 38.878Z" fill="#171725"/>
</svg>
