<svg width="1082" height="524" viewBox="0 0 1082 524" fill="none" xmlns="http://www.w3.org/2000/svg">
<rect width="1082" height="524" rx="20" fill="white"/>
<path d="M120.35 457.098C119.706 457.098 119.128 456.986 118.614 456.762C118.11 456.529 117.714 456.211 117.424 455.81C117.135 455.399 116.986 454.928 116.976 454.396H118.334C118.381 454.853 118.568 455.241 118.894 455.558C119.23 455.866 119.716 456.02 120.35 456.02C120.957 456.02 121.433 455.871 121.778 455.572C122.133 455.264 122.31 454.872 122.31 454.396C122.31 454.023 122.208 453.719 122.002 453.486C121.797 453.253 121.54 453.075 121.232 452.954C120.924 452.833 120.509 452.702 119.986 452.562C119.342 452.394 118.824 452.226 118.432 452.058C118.05 451.89 117.718 451.629 117.438 451.274C117.168 450.91 117.032 450.425 117.032 449.818C117.032 449.286 117.168 448.815 117.438 448.404C117.709 447.993 118.087 447.676 118.572 447.452C119.067 447.228 119.632 447.116 120.266 447.116C121.181 447.116 121.928 447.345 122.506 447.802C123.094 448.259 123.426 448.866 123.5 449.622H122.1C122.054 449.249 121.858 448.922 121.512 448.642C121.167 448.353 120.71 448.208 120.14 448.208C119.608 448.208 119.174 448.348 118.838 448.628C118.502 448.899 118.334 449.281 118.334 449.776C118.334 450.131 118.432 450.42 118.628 450.644C118.834 450.868 119.081 451.041 119.37 451.162C119.669 451.274 120.084 451.405 120.616 451.554C121.26 451.731 121.778 451.909 122.17 452.086C122.562 452.254 122.898 452.52 123.178 452.884C123.458 453.239 123.598 453.724 123.598 454.34C123.598 454.816 123.472 455.264 123.22 455.684C122.968 456.104 122.595 456.445 122.1 456.706C121.606 456.967 121.022 457.098 120.35 457.098ZM136.211 447.312V457H134.937V449.776L131.717 457H130.821L127.587 449.762V457H126.313V447.312H127.685L131.269 455.32L134.853 447.312H136.211ZM142.306 457.098C141.662 457.098 141.083 456.986 140.57 456.762C140.066 456.529 139.669 456.211 139.38 455.81C139.09 455.399 138.941 454.928 138.932 454.396H140.29C140.336 454.853 140.523 455.241 140.85 455.558C141.186 455.866 141.671 456.02 142.306 456.02C142.912 456.02 143.388 455.871 143.734 455.572C144.088 455.264 144.266 454.872 144.266 454.396C144.266 454.023 144.163 453.719 143.958 453.486C143.752 453.253 143.496 453.075 143.188 452.954C142.88 452.833 142.464 452.702 141.942 452.562C141.298 452.394 140.78 452.226 140.388 452.058C140.005 451.89 139.674 451.629 139.394 451.274C139.123 450.91 138.988 450.425 138.988 449.818C138.988 449.286 139.123 448.815 139.394 448.404C139.664 447.993 140.042 447.676 140.528 447.452C141.022 447.228 141.587 447.116 142.222 447.116C143.136 447.116 143.883 447.345 144.462 447.802C145.05 448.259 145.381 448.866 145.456 449.622H144.056C144.009 449.249 143.813 448.922 143.468 448.642C143.122 448.353 142.665 448.208 142.096 448.208C141.564 448.208 141.13 448.348 140.794 448.628C140.458 448.899 140.29 449.281 140.29 449.776C140.29 450.131 140.388 450.42 140.584 450.644C140.789 450.868 141.036 451.041 141.326 451.162C141.624 451.274 142.04 451.405 142.572 451.554C143.216 451.731 143.734 451.909 144.126 452.086C144.518 452.254 144.854 452.52 145.134 452.884C145.414 453.239 145.554 453.724 145.554 454.34C145.554 454.816 145.428 455.264 145.176 455.684C144.924 456.104 144.55 456.445 144.056 456.706C143.561 456.967 142.978 457.098 142.306 457.098ZM159.449 449.328L154.829 460.612H153.513L155.025 456.916L151.931 449.328H153.345L155.753 455.544L158.133 449.328H159.449ZM168.374 449.328V457H167.1V455.866C166.857 456.258 166.516 456.566 166.078 456.79C165.648 457.005 165.172 457.112 164.65 457.112C164.052 457.112 163.516 456.991 163.04 456.748C162.564 456.496 162.186 456.123 161.906 455.628C161.635 455.133 161.5 454.531 161.5 453.822V449.328H162.76V453.654C162.76 454.41 162.951 454.993 163.334 455.404C163.716 455.805 164.239 456.006 164.902 456.006C165.583 456.006 166.12 455.796 166.512 455.376C166.904 454.956 167.1 454.345 167.1 453.542V449.328H168.374ZM172.639 450.756C172.9 450.299 173.283 449.925 173.787 449.636C174.291 449.347 174.865 449.202 175.509 449.202C176.199 449.202 176.82 449.365 177.371 449.692C177.921 450.019 178.355 450.481 178.673 451.078C178.99 451.666 179.149 452.352 179.149 453.136C179.149 453.911 178.99 454.601 178.673 455.208C178.355 455.815 177.917 456.286 177.357 456.622C176.806 456.958 176.19 457.126 175.509 457.126C174.846 457.126 174.263 456.981 173.759 456.692C173.264 456.403 172.891 456.034 172.639 455.586V457H171.365V446.64H172.639V450.756ZM177.847 453.136C177.847 452.557 177.73 452.053 177.497 451.624C177.263 451.195 176.946 450.868 176.545 450.644C176.153 450.42 175.719 450.308 175.243 450.308C174.776 450.308 174.342 450.425 173.941 450.658C173.549 450.882 173.231 451.213 172.989 451.652C172.755 452.081 172.639 452.581 172.639 453.15C172.639 453.729 172.755 454.237 172.989 454.676C173.231 455.105 173.549 455.437 173.941 455.67C174.342 455.894 174.776 456.006 175.243 456.006C175.719 456.006 176.153 455.894 176.545 455.67C176.946 455.437 177.263 455.105 177.497 454.676C177.73 454.237 177.847 453.724 177.847 453.136ZM185.012 457.126C184.293 457.126 183.64 456.963 183.052 456.636C182.473 456.309 182.016 455.847 181.68 455.25C181.353 454.643 181.19 453.943 181.19 453.15C181.19 452.366 181.358 451.675 181.694 451.078C182.039 450.471 182.506 450.009 183.094 449.692C183.682 449.365 184.34 449.202 185.068 449.202C185.796 449.202 186.454 449.365 187.042 449.692C187.63 450.009 188.092 450.467 188.428 451.064C188.773 451.661 188.946 452.357 188.946 453.15C188.946 453.943 188.768 454.643 188.414 455.25C188.068 455.847 187.597 456.309 187 456.636C186.402 456.963 185.74 457.126 185.012 457.126ZM185.012 456.006C185.469 456.006 185.898 455.899 186.3 455.684C186.701 455.469 187.023 455.147 187.266 454.718C187.518 454.289 187.644 453.766 187.644 453.15C187.644 452.534 187.522 452.011 187.28 451.582C187.037 451.153 186.72 450.835 186.328 450.63C185.936 450.415 185.511 450.308 185.054 450.308C184.587 450.308 184.158 450.415 183.766 450.63C183.383 450.835 183.075 451.153 182.842 451.582C182.608 452.011 182.492 452.534 182.492 453.15C182.492 453.775 182.604 454.303 182.828 454.732C183.061 455.161 183.369 455.483 183.752 455.698C184.134 455.903 184.554 456.006 185.012 456.006ZM192.735 450.574C192.959 450.135 193.276 449.795 193.687 449.552C194.107 449.309 194.615 449.188 195.213 449.188V450.504H194.877C193.449 450.504 192.735 451.279 192.735 452.828V457H191.461V449.328H192.735V450.574ZM198.181 448.082C197.939 448.082 197.733 447.998 197.565 447.83C197.397 447.662 197.313 447.457 197.313 447.214C197.313 446.971 197.397 446.766 197.565 446.598C197.733 446.43 197.939 446.346 198.181 446.346C198.415 446.346 198.611 446.43 198.769 446.598C198.937 446.766 199.021 446.971 199.021 447.214C199.021 447.457 198.937 447.662 198.769 447.83C198.611 447.998 198.415 448.082 198.181 448.082ZM198.797 449.328V457H197.523V449.328H198.797ZM203.083 446.64V457H201.809V446.64H203.083ZM209.258 449.202C209.921 449.202 210.499 449.347 210.994 449.636C211.498 449.925 211.871 450.289 212.114 450.728V449.328H213.402V457.168C213.402 457.868 213.253 458.489 212.954 459.03C212.655 459.581 212.226 460.01 211.666 460.318C211.115 460.626 210.471 460.78 209.734 460.78C208.726 460.78 207.886 460.542 207.214 460.066C206.542 459.59 206.145 458.941 206.024 458.12H207.284C207.424 458.587 207.713 458.96 208.152 459.24C208.591 459.529 209.118 459.674 209.734 459.674C210.434 459.674 211.003 459.455 211.442 459.016C211.89 458.577 212.114 457.961 212.114 457.168V455.558C211.862 456.006 211.489 456.379 210.994 456.678C210.499 456.977 209.921 457.126 209.258 457.126C208.577 457.126 207.956 456.958 207.396 456.622C206.845 456.286 206.411 455.815 206.094 455.208C205.777 454.601 205.618 453.911 205.618 453.136C205.618 452.352 205.777 451.666 206.094 451.078C206.411 450.481 206.845 450.019 207.396 449.692C207.956 449.365 208.577 449.202 209.258 449.202ZM212.114 453.15C212.114 452.571 211.997 452.067 211.764 451.638C211.531 451.209 211.213 450.882 210.812 450.658C210.42 450.425 209.986 450.308 209.51 450.308C209.034 450.308 208.6 450.42 208.208 450.644C207.816 450.868 207.503 451.195 207.27 451.624C207.037 452.053 206.92 452.557 206.92 453.136C206.92 453.724 207.037 454.237 207.27 454.676C207.503 455.105 207.816 455.437 208.208 455.67C208.6 455.894 209.034 456.006 209.51 456.006C209.986 456.006 210.42 455.894 210.812 455.67C211.213 455.437 211.531 455.105 211.764 454.676C211.997 454.237 212.114 453.729 212.114 453.15ZM215.919 453.136C215.919 452.352 216.078 451.666 216.395 451.078C216.712 450.481 217.146 450.019 217.697 449.692C218.257 449.365 218.878 449.202 219.559 449.202C220.231 449.202 220.814 449.347 221.309 449.636C221.804 449.925 222.172 450.289 222.415 450.728V449.328H223.703V457H222.415V455.572C222.163 456.02 221.785 456.393 221.281 456.692C220.786 456.981 220.208 457.126 219.545 457.126C218.864 457.126 218.248 456.958 217.697 456.622C217.146 456.286 216.712 455.815 216.395 455.208C216.078 454.601 215.919 453.911 215.919 453.136ZM222.415 453.15C222.415 452.571 222.298 452.067 222.065 451.638C221.832 451.209 221.514 450.882 221.113 450.658C220.721 450.425 220.287 450.308 219.811 450.308C219.335 450.308 218.901 450.42 218.509 450.644C218.117 450.868 217.804 451.195 217.571 451.624C217.338 452.053 217.221 452.557 217.221 453.136C217.221 453.724 217.338 454.237 217.571 454.676C217.804 455.105 218.117 455.437 218.509 455.67C218.901 455.894 219.335 456.006 219.811 456.006C220.287 456.006 220.721 455.894 221.113 455.67C221.514 455.437 221.832 455.105 222.065 454.676C222.298 454.237 222.415 453.729 222.415 453.15ZM230.434 449.188C231.367 449.188 232.123 449.473 232.702 450.042C233.28 450.602 233.57 451.414 233.57 452.478V457H232.31V452.66C232.31 451.895 232.118 451.311 231.736 450.91C231.353 450.499 230.83 450.294 230.168 450.294C229.496 450.294 228.959 450.504 228.558 450.924C228.166 451.344 227.97 451.955 227.97 452.758V457H226.696V449.328H227.97V450.42C228.222 450.028 228.562 449.725 228.992 449.51C229.43 449.295 229.911 449.188 230.434 449.188ZM237.765 446.64V457H236.491V446.64H237.765ZM240.3 453.136C240.3 452.352 240.459 451.666 240.776 451.078C241.093 450.481 241.527 450.019 242.078 449.692C242.638 449.365 243.259 449.202 243.94 449.202C244.612 449.202 245.195 449.347 245.69 449.636C246.185 449.925 246.553 450.289 246.796 450.728V449.328H248.084V457H246.796V455.572C246.544 456.02 246.166 456.393 245.662 456.692C245.167 456.981 244.589 457.126 243.926 457.126C243.245 457.126 242.629 456.958 242.078 456.622C241.527 456.286 241.093 455.815 240.776 455.208C240.459 454.601 240.3 453.911 240.3 453.136ZM246.796 453.15C246.796 452.571 246.679 452.067 246.446 451.638C246.213 451.209 245.895 450.882 245.494 450.658C245.102 450.425 244.668 450.308 244.192 450.308C243.716 450.308 243.282 450.42 242.89 450.644C242.498 450.868 242.185 451.195 241.952 451.624C241.719 452.053 241.602 452.557 241.602 453.136C241.602 453.724 241.719 454.237 241.952 454.676C242.185 455.105 242.498 455.437 242.89 455.67C243.282 455.894 243.716 456.006 244.192 456.006C244.668 456.006 245.102 455.894 245.494 455.67C245.895 455.437 246.213 455.105 246.446 454.676C246.679 454.237 246.796 453.729 246.796 453.15ZM252.351 450.574C252.575 450.135 252.892 449.795 253.303 449.552C253.723 449.309 254.232 449.188 254.829 449.188V450.504H254.493C253.065 450.504 252.351 451.279 252.351 452.828V457H251.077V449.328H252.351V450.574Z" fill="#A6B1BB"/>
<path d="M312.061 455.964H315.477V457H310.787V447.242H312.061V455.964ZM318.328 448.082C318.085 448.082 317.88 447.998 317.712 447.83C317.544 447.662 317.46 447.457 317.46 447.214C317.46 446.971 317.544 446.766 317.712 446.598C317.88 446.43 318.085 446.346 318.328 446.346C318.561 446.346 318.757 446.43 318.916 446.598C319.084 446.766 319.168 446.971 319.168 447.214C319.168 447.457 319.084 447.662 318.916 447.83C318.757 447.998 318.561 448.082 318.328 448.082ZM318.944 449.328V457H317.67V449.328H318.944ZM325.693 449.188C326.627 449.188 327.383 449.473 327.961 450.042C328.54 450.602 328.829 451.414 328.829 452.478V457H327.569V452.66C327.569 451.895 327.378 451.311 326.995 450.91C326.613 450.499 326.09 450.294 325.427 450.294C324.755 450.294 324.219 450.504 323.817 450.924C323.425 451.344 323.229 451.955 323.229 452.758V457H321.955V449.328H323.229V450.42C323.481 450.028 323.822 449.725 324.251 449.51C324.69 449.295 325.171 449.188 325.693 449.188ZM336.035 457L333.025 453.612V457H331.751V446.64H333.025V452.73L335.979 449.328H337.757L334.145 453.15L337.771 457H336.035ZM342.96 449.202C343.622 449.202 344.201 449.347 344.696 449.636C345.2 449.925 345.573 450.289 345.816 450.728V449.328H347.104V457.168C347.104 457.868 346.954 458.489 346.656 459.03C346.357 459.581 345.928 460.01 345.368 460.318C344.817 460.626 344.173 460.78 343.436 460.78C342.428 460.78 341.588 460.542 340.916 460.066C340.244 459.59 339.847 458.941 339.726 458.12H340.986C341.126 458.587 341.415 458.96 341.854 459.24C342.292 459.529 342.82 459.674 343.436 459.674C344.136 459.674 344.705 459.455 345.144 459.016C345.592 458.577 345.816 457.961 345.816 457.168V455.558C345.564 456.006 345.19 456.379 344.696 456.678C344.201 456.977 343.622 457.126 342.96 457.126C342.278 457.126 341.658 456.958 341.098 456.622C340.547 456.286 340.113 455.815 339.796 455.208C339.478 454.601 339.32 453.911 339.32 453.136C339.32 452.352 339.478 451.666 339.796 451.078C340.113 450.481 340.547 450.019 341.098 449.692C341.658 449.365 342.278 449.202 342.96 449.202ZM345.816 453.15C345.816 452.571 345.699 452.067 345.466 451.638C345.232 451.209 344.915 450.882 344.514 450.658C344.122 450.425 343.688 450.308 343.212 450.308C342.736 450.308 342.302 450.42 341.91 450.644C341.518 450.868 341.205 451.195 340.972 451.624C340.738 452.053 340.622 452.557 340.622 453.136C340.622 453.724 340.738 454.237 340.972 454.676C341.205 455.105 341.518 455.437 341.91 455.67C342.302 455.894 342.736 456.006 343.212 456.006C343.688 456.006 344.122 455.894 344.514 455.67C344.915 455.437 345.232 455.105 345.466 454.676C345.699 454.237 345.816 453.729 345.816 453.15ZM349.621 453.136C349.621 452.352 349.779 451.666 350.097 451.078C350.414 450.481 350.848 450.019 351.399 449.692C351.959 449.365 352.579 449.202 353.261 449.202C353.933 449.202 354.516 449.347 355.011 449.636C355.505 449.925 355.874 450.289 356.117 450.728V449.328H357.405V457H356.117V455.572C355.865 456.02 355.487 456.393 354.983 456.692C354.488 456.981 353.909 457.126 353.247 457.126C352.565 457.126 351.949 456.958 351.399 456.622C350.848 456.286 350.414 455.815 350.097 455.208C349.779 454.601 349.621 453.911 349.621 453.136ZM356.117 453.15C356.117 452.571 356 452.067 355.767 451.638C355.533 451.209 355.216 450.882 354.815 450.658C354.423 450.425 353.989 450.308 353.513 450.308C353.037 450.308 352.603 450.42 352.211 450.644C351.819 450.868 351.506 451.195 351.273 451.624C351.039 452.053 350.923 452.557 350.923 453.136C350.923 453.724 351.039 454.237 351.273 454.676C351.506 455.105 351.819 455.437 352.211 455.67C352.603 455.894 353.037 456.006 353.513 456.006C353.989 456.006 354.423 455.894 354.815 455.67C355.216 455.437 355.533 455.105 355.767 454.676C356 454.237 356.117 453.729 356.117 453.15ZM369.254 457L366.244 453.612V457H364.97V446.64H366.244V452.73L369.198 449.328H370.976L367.364 453.15L370.99 457H369.254ZM373.673 448.082C373.43 448.082 373.225 447.998 373.057 447.83C372.889 447.662 372.805 447.457 372.805 447.214C372.805 446.971 372.889 446.766 373.057 446.598C373.225 446.43 373.43 446.346 373.673 446.346C373.906 446.346 374.102 446.43 374.261 446.598C374.429 446.766 374.513 446.971 374.513 447.214C374.513 447.457 374.429 447.662 374.261 447.83C374.102 447.998 373.906 448.082 373.673 448.082ZM374.289 449.328V457H373.015V449.328H374.289ZM378.574 450.574C378.798 450.135 379.116 449.795 379.526 449.552C379.946 449.309 380.455 449.188 381.052 449.188V450.504H380.716C379.288 450.504 378.574 451.279 378.574 452.828V457H377.3V449.328H378.574V450.574ZM386.527 449.202C387.19 449.202 387.768 449.347 388.263 449.636C388.767 449.925 389.14 450.289 389.383 450.728V449.328H390.671V457.168C390.671 457.868 390.522 458.489 390.223 459.03C389.924 459.581 389.495 460.01 388.935 460.318C388.384 460.626 387.74 460.78 387.003 460.78C385.995 460.78 385.155 460.542 384.483 460.066C383.811 459.59 383.414 458.941 383.293 458.12H384.553C384.693 458.587 384.982 458.96 385.421 459.24C385.86 459.529 386.387 459.674 387.003 459.674C387.703 459.674 388.272 459.455 388.711 459.016C389.159 458.577 389.383 457.961 389.383 457.168V455.558C389.131 456.006 388.758 456.379 388.263 456.678C387.768 456.977 387.19 457.126 386.527 457.126C385.846 457.126 385.225 456.958 384.665 456.622C384.114 456.286 383.68 455.815 383.363 455.208C383.046 454.601 382.887 453.911 382.887 453.136C382.887 452.352 383.046 451.666 383.363 451.078C383.68 450.481 384.114 450.019 384.665 449.692C385.225 449.365 385.846 449.202 386.527 449.202ZM389.383 453.15C389.383 452.571 389.266 452.067 389.033 451.638C388.8 451.209 388.482 450.882 388.081 450.658C387.689 450.425 387.255 450.308 386.779 450.308C386.303 450.308 385.869 450.42 385.477 450.644C385.085 450.868 384.772 451.195 384.539 451.624C384.306 452.053 384.189 452.557 384.189 453.136C384.189 453.724 384.306 454.237 384.539 454.676C384.772 455.105 385.085 455.437 385.477 455.67C385.869 455.894 386.303 456.006 386.779 456.006C387.255 456.006 387.689 455.894 388.081 455.67C388.482 455.437 388.8 455.105 389.033 454.676C389.266 454.237 389.383 453.729 389.383 453.15ZM393.188 453.136C393.188 452.352 393.347 451.666 393.664 451.078C393.981 450.481 394.415 450.019 394.966 449.692C395.526 449.365 396.147 449.202 396.828 449.202C397.5 449.202 398.083 449.347 398.578 449.636C399.073 449.925 399.441 450.289 399.684 450.728V449.328H400.972V457H399.684V455.572C399.432 456.02 399.054 456.393 398.55 456.692C398.055 456.981 397.477 457.126 396.814 457.126C396.133 457.126 395.517 456.958 394.966 456.622C394.415 456.286 393.981 455.815 393.664 455.208C393.347 454.601 393.188 453.911 393.188 453.136ZM399.684 453.15C399.684 452.571 399.567 452.067 399.334 451.638C399.101 451.209 398.783 450.882 398.382 450.658C397.99 450.425 397.556 450.308 397.08 450.308C396.604 450.308 396.17 450.42 395.778 450.644C395.386 450.868 395.073 451.195 394.84 451.624C394.607 452.053 394.49 452.557 394.49 453.136C394.49 453.724 394.607 454.237 394.84 454.676C395.073 455.105 395.386 455.437 395.778 455.67C396.17 455.894 396.604 456.006 397.08 456.006C397.556 456.006 397.99 455.894 398.382 455.67C398.783 455.437 399.101 455.105 399.334 454.676C399.567 454.237 399.684 453.729 399.684 453.15ZM407.703 449.188C408.636 449.188 409.392 449.473 409.971 450.042C410.549 450.602 410.839 451.414 410.839 452.478V457H409.579V452.66C409.579 451.895 409.387 451.311 409.005 450.91C408.622 450.499 408.099 450.294 407.437 450.294C406.765 450.294 406.228 450.504 405.827 450.924C405.435 451.344 405.239 451.955 405.239 452.758V457H403.965V449.328H405.239V450.42C405.491 450.028 405.831 449.725 406.261 449.51C406.699 449.295 407.18 449.188 407.703 449.188ZM415.034 446.64V457H413.76V446.64H415.034ZM417.569 453.136C417.569 452.352 417.728 451.666 418.045 451.078C418.363 450.481 418.797 450.019 419.347 449.692C419.907 449.365 420.528 449.202 421.209 449.202C421.881 449.202 422.465 449.347 422.959 449.636C423.454 449.925 423.823 450.289 424.065 450.728V449.328H425.353V457H424.065V455.572C423.813 456.02 423.435 456.393 422.931 456.692C422.437 456.981 421.858 457.126 421.195 457.126C420.514 457.126 419.898 456.958 419.347 456.622C418.797 456.286 418.363 455.815 418.045 455.208C417.728 454.601 417.569 453.911 417.569 453.136ZM424.065 453.15C424.065 452.571 423.949 452.067 423.715 451.638C423.482 451.209 423.165 450.882 422.763 450.658C422.371 450.425 421.937 450.308 421.461 450.308C420.985 450.308 420.551 450.42 420.159 450.644C419.767 450.868 419.455 451.195 419.221 451.624C418.988 452.053 418.871 452.557 418.871 453.136C418.871 453.724 418.988 454.237 419.221 454.676C419.455 455.105 419.767 455.437 420.159 455.67C420.551 455.894 420.985 456.006 421.461 456.006C421.937 456.006 422.371 455.894 422.763 455.67C423.165 455.437 423.482 455.105 423.715 454.676C423.949 454.237 424.065 453.729 424.065 453.15ZM429.62 450.574C429.844 450.135 430.161 449.795 430.572 449.552C430.992 449.309 431.501 449.188 432.098 449.188V450.504H431.762C430.334 450.504 429.62 451.279 429.62 452.828V457H428.346V449.328H429.62V450.574Z" fill="#A6B1BB"/>
<path d="M489.045 451.312V461H487.771V453.776L484.551 461H483.655L480.421 453.762V461H479.147V451.312H480.519L484.103 459.32L487.687 451.312H489.045ZM491.569 457.136C491.569 456.352 491.728 455.666 492.045 455.078C492.363 454.481 492.797 454.019 493.347 453.692C493.907 453.365 494.528 453.202 495.209 453.202C495.881 453.202 496.465 453.347 496.959 453.636C497.454 453.925 497.823 454.289 498.065 454.728V453.328H499.353V461H498.065V459.572C497.813 460.02 497.435 460.393 496.931 460.692C496.437 460.981 495.858 461.126 495.195 461.126C494.514 461.126 493.898 460.958 493.347 460.622C492.797 460.286 492.363 459.815 492.045 459.208C491.728 458.601 491.569 457.911 491.569 457.136ZM498.065 457.15C498.065 456.571 497.949 456.067 497.715 455.638C497.482 455.209 497.165 454.882 496.763 454.658C496.371 454.425 495.937 454.308 495.461 454.308C494.985 454.308 494.551 454.42 494.159 454.644C493.767 454.868 493.455 455.195 493.221 455.624C492.988 456.053 492.871 456.557 492.871 457.136C492.871 457.724 492.988 458.237 493.221 458.676C493.455 459.105 493.767 459.437 494.159 459.67C494.551 459.894 494.985 460.006 495.461 460.006C495.937 460.006 496.371 459.894 496.763 459.67C497.165 459.437 497.482 459.105 497.715 458.676C497.949 458.237 498.065 457.729 498.065 457.15ZM506.154 453.188C506.733 453.188 507.256 453.314 507.722 453.566C508.189 453.809 508.553 454.177 508.814 454.672C509.085 455.167 509.22 455.769 509.22 456.478V461H507.96V456.66C507.96 455.895 507.769 455.311 507.386 454.91C507.004 454.499 506.481 454.294 505.818 454.294C505.146 454.294 504.61 454.504 504.208 454.924C503.816 455.344 503.62 455.955 503.62 456.758V461H502.346V450.64H503.62V454.42C503.872 454.028 504.218 453.725 504.656 453.51C505.104 453.295 505.604 453.188 506.154 453.188ZM514.857 461.126C514.269 461.126 513.742 461.028 513.275 460.832C512.809 460.627 512.44 460.347 512.169 459.992C511.899 459.628 511.749 459.213 511.721 458.746H513.037C513.075 459.129 513.252 459.441 513.569 459.684C513.896 459.927 514.321 460.048 514.843 460.048C515.329 460.048 515.711 459.941 515.991 459.726C516.271 459.511 516.411 459.241 516.411 458.914C516.411 458.578 516.262 458.331 515.963 458.172C515.665 458.004 515.203 457.841 514.577 457.682C514.008 457.533 513.541 457.383 513.177 457.234C512.823 457.075 512.515 456.847 512.253 456.548C512.001 456.24 511.875 455.839 511.875 455.344C511.875 454.952 511.992 454.593 512.225 454.266C512.459 453.939 512.79 453.683 513.219 453.496C513.649 453.3 514.139 453.202 514.689 453.202C515.539 453.202 516.225 453.417 516.747 453.846C517.27 454.275 517.55 454.863 517.587 455.61H516.313C516.285 455.209 516.122 454.887 515.823 454.644C515.534 454.401 515.142 454.28 514.647 454.28C514.19 454.28 513.826 454.378 513.555 454.574C513.285 454.77 513.149 455.027 513.149 455.344C513.149 455.596 513.229 455.806 513.387 455.974C513.555 456.133 513.761 456.263 514.003 456.366C514.255 456.459 514.601 456.567 515.039 456.688C515.59 456.837 516.038 456.987 516.383 457.136C516.729 457.276 517.023 457.491 517.265 457.78C517.517 458.069 517.648 458.447 517.657 458.914C517.657 459.334 517.541 459.712 517.307 460.048C517.074 460.384 516.743 460.65 516.313 460.846C515.893 461.033 515.408 461.126 514.857 461.126ZM527.1 453.328V461H525.826V459.866C525.583 460.258 525.243 460.566 524.804 460.79C524.375 461.005 523.899 461.112 523.376 461.112C522.779 461.112 522.242 460.991 521.766 460.748C521.29 460.496 520.912 460.123 520.632 459.628C520.361 459.133 520.226 458.531 520.226 457.822V453.328H521.486V457.654C521.486 458.41 521.677 458.993 522.06 459.404C522.443 459.805 522.965 460.006 523.628 460.006C524.309 460.006 524.846 459.796 525.238 459.376C525.63 458.956 525.826 458.345 525.826 457.542V453.328H527.1ZM531.365 450.64V461H530.091V450.64H531.365ZM537.722 461.126C537.004 461.126 536.35 460.963 535.762 460.636C535.184 460.309 534.726 459.847 534.39 459.25C534.064 458.643 533.9 457.943 533.9 457.15C533.9 456.366 534.068 455.675 534.404 455.078C534.75 454.471 535.216 454.009 535.804 453.692C536.392 453.365 537.05 453.202 537.778 453.202C538.506 453.202 539.164 453.365 539.752 453.692C540.34 454.009 540.802 454.467 541.138 455.064C541.484 455.661 541.656 456.357 541.656 457.15C541.656 457.943 541.479 458.643 541.124 459.25C540.779 459.847 540.308 460.309 539.71 460.636C539.113 460.963 538.45 461.126 537.722 461.126ZM537.722 460.006C538.18 460.006 538.609 459.899 539.01 459.684C539.412 459.469 539.734 459.147 539.976 458.718C540.228 458.289 540.354 457.766 540.354 457.15C540.354 456.534 540.233 456.011 539.99 455.582C539.748 455.153 539.43 454.835 539.038 454.63C538.646 454.415 538.222 454.308 537.764 454.308C537.298 454.308 536.868 454.415 536.476 454.63C536.094 454.835 535.786 455.153 535.552 455.582C535.319 456.011 535.202 456.534 535.202 457.15C535.202 457.775 535.314 458.303 535.538 458.732C535.772 459.161 536.08 459.483 536.462 459.698C536.845 459.903 537.265 460.006 537.722 460.006ZM545.725 454.378V458.9C545.725 459.273 545.805 459.539 545.963 459.698C546.122 459.847 546.397 459.922 546.789 459.922H547.727V461H546.579C545.87 461 545.338 460.837 544.983 460.51C544.629 460.183 544.451 459.647 544.451 458.9V454.378H543.457V453.328H544.451V451.396H545.725V453.328H547.727V454.378H545.725ZM557.399 461.126C556.811 461.126 556.284 461.028 555.817 460.832C555.351 460.627 554.982 460.347 554.711 459.992C554.441 459.628 554.291 459.213 554.263 458.746H555.579C555.617 459.129 555.794 459.441 556.111 459.684C556.438 459.927 556.863 460.048 557.385 460.048C557.871 460.048 558.253 459.941 558.533 459.726C558.813 459.511 558.953 459.241 558.953 458.914C558.953 458.578 558.804 458.331 558.505 458.172C558.207 458.004 557.745 457.841 557.119 457.682C556.55 457.533 556.083 457.383 555.719 457.234C555.365 457.075 555.057 456.847 554.795 456.548C554.543 456.24 554.417 455.839 554.417 455.344C554.417 454.952 554.534 454.593 554.767 454.266C555.001 453.939 555.332 453.683 555.761 453.496C556.191 453.3 556.681 453.202 557.231 453.202C558.081 453.202 558.767 453.417 559.289 453.846C559.812 454.275 560.092 454.863 560.129 455.61H558.855C558.827 455.209 558.664 454.887 558.365 454.644C558.076 454.401 557.684 454.28 557.189 454.28C556.732 454.28 556.368 454.378 556.097 454.574C555.827 454.77 555.691 455.027 555.691 455.344C555.691 455.596 555.771 455.806 555.929 455.974C556.097 456.133 556.303 456.263 556.545 456.366C556.797 456.459 557.143 456.567 557.581 456.688C558.132 456.837 558.58 456.987 558.925 457.136C559.271 457.276 559.565 457.491 559.807 457.78C560.059 458.069 560.19 458.447 560.199 458.914C560.199 459.334 560.083 459.712 559.849 460.048C559.616 460.384 559.285 460.65 558.855 460.846C558.435 461.033 557.95 461.126 557.399 461.126ZM562.362 457.136C562.362 456.352 562.52 455.666 562.838 455.078C563.155 454.481 563.589 454.019 564.14 453.692C564.7 453.365 565.32 453.202 566.002 453.202C566.674 453.202 567.257 453.347 567.752 453.636C568.246 453.925 568.615 454.289 568.858 454.728V453.328H570.146V461H568.858V459.572C568.606 460.02 568.228 460.393 567.724 460.692C567.229 460.981 566.65 461.126 565.988 461.126C565.306 461.126 564.69 460.958 564.14 460.622C563.589 460.286 563.155 459.815 562.838 459.208C562.52 458.601 562.362 457.911 562.362 457.136ZM568.858 457.15C568.858 456.571 568.741 456.067 568.508 455.638C568.274 455.209 567.957 454.882 567.556 454.658C567.164 454.425 566.73 454.308 566.254 454.308C565.778 454.308 565.344 454.42 564.952 454.644C564.56 454.868 564.247 455.195 564.014 455.624C563.78 456.053 563.664 456.557 563.664 457.136C563.664 457.724 563.78 458.237 564.014 458.676C564.247 459.105 564.56 459.437 564.952 459.67C565.344 459.894 565.778 460.006 566.254 460.006C566.73 460.006 567.164 459.894 567.556 459.67C567.957 459.437 568.274 459.105 568.508 458.676C568.741 458.237 568.858 457.729 568.858 457.15ZM576.947 453.188C577.525 453.188 578.048 453.314 578.515 453.566C578.981 453.809 579.345 454.177 579.607 454.672C579.877 455.167 580.013 455.769 580.013 456.478V461H578.753V456.66C578.753 455.895 578.561 455.311 578.179 454.91C577.796 454.499 577.273 454.294 576.611 454.294C575.939 454.294 575.402 454.504 575.001 454.924C574.609 455.344 574.413 455.955 574.413 456.758V461H573.139V450.64H574.413V454.42C574.665 454.028 575.01 453.725 575.449 453.51C575.897 453.295 576.396 453.188 576.947 453.188ZM583.592 452.082C583.349 452.082 583.144 451.998 582.976 451.83C582.808 451.662 582.724 451.457 582.724 451.214C582.724 450.971 582.808 450.766 582.976 450.598C583.144 450.43 583.349 450.346 583.592 450.346C583.825 450.346 584.021 450.43 584.18 450.598C584.348 450.766 584.432 450.971 584.432 451.214C584.432 451.457 584.348 451.662 584.18 451.83C584.021 451.998 583.825 452.082 583.592 452.082ZM584.208 453.328V461H582.934V453.328H584.208ZM590.341 454.378H588.731V461H587.457V454.378H586.463V453.328H587.457V452.782C587.457 451.923 587.676 451.298 588.115 450.906C588.563 450.505 589.277 450.304 590.257 450.304V451.368C589.697 451.368 589.3 451.48 589.067 451.704C588.843 451.919 588.731 452.278 588.731 452.782V453.328H590.341V454.378ZM592.191 457.136C592.191 456.352 592.349 455.666 592.667 455.078C592.984 454.481 593.418 454.019 593.969 453.692C594.529 453.365 595.149 453.202 595.831 453.202C596.503 453.202 597.086 453.347 597.581 453.636C598.075 453.925 598.444 454.289 598.687 454.728V453.328H599.975V461H598.687V459.572C598.435 460.02 598.057 460.393 597.553 460.692C597.058 460.981 596.479 461.126 595.817 461.126C595.135 461.126 594.519 460.958 593.969 460.622C593.418 460.286 592.984 459.815 592.667 459.208C592.349 458.601 592.191 457.911 592.191 457.136ZM598.687 457.15C598.687 456.571 598.57 456.067 598.337 455.638C598.103 455.209 597.786 454.882 597.385 454.658C596.993 454.425 596.559 454.308 596.083 454.308C595.607 454.308 595.173 454.42 594.781 454.644C594.389 454.868 594.076 455.195 593.843 455.624C593.609 456.053 593.493 456.557 593.493 457.136C593.493 457.724 593.609 458.237 593.843 458.676C594.076 459.105 594.389 459.437 594.781 459.67C595.173 459.894 595.607 460.006 596.083 460.006C596.559 460.006 596.993 459.894 597.385 459.67C597.786 459.437 598.103 459.105 598.337 458.676C598.57 458.237 598.687 457.729 598.687 457.15ZM605.683 461.126C605.095 461.126 604.568 461.028 604.101 460.832C603.635 460.627 603.266 460.347 602.995 459.992C602.725 459.628 602.575 459.213 602.547 458.746H603.863C603.901 459.129 604.078 459.441 604.395 459.684C604.722 459.927 605.147 460.048 605.669 460.048C606.155 460.048 606.537 459.941 606.817 459.726C607.097 459.511 607.237 459.241 607.237 458.914C607.237 458.578 607.088 458.331 606.789 458.172C606.491 458.004 606.029 457.841 605.403 457.682C604.834 457.533 604.367 457.383 604.003 457.234C603.649 457.075 603.341 456.847 603.079 456.548C602.827 456.24 602.701 455.839 602.701 455.344C602.701 454.952 602.818 454.593 603.051 454.266C603.285 453.939 603.616 453.683 604.045 453.496C604.475 453.3 604.965 453.202 605.515 453.202C606.365 453.202 607.051 453.417 607.573 453.846C608.096 454.275 608.376 454.863 608.413 455.61H607.139C607.111 455.209 606.948 454.887 606.649 454.644C606.36 454.401 605.968 454.28 605.473 454.28C605.016 454.28 604.652 454.378 604.381 454.574C604.111 454.77 603.975 455.027 603.975 455.344C603.975 455.596 604.055 455.806 604.213 455.974C604.381 456.133 604.587 456.263 604.829 456.366C605.081 456.459 605.427 456.567 605.865 456.688C606.416 456.837 606.864 456.987 607.209 457.136C607.555 457.276 607.849 457.491 608.091 457.78C608.343 458.069 608.474 458.447 608.483 458.914C608.483 459.334 608.367 459.712 608.133 460.048C607.9 460.384 607.569 460.65 607.139 460.846C606.719 461.033 606.234 461.126 605.683 461.126ZM611.78 452.082C611.537 452.082 611.332 451.998 611.164 451.83C610.996 451.662 610.912 451.457 610.912 451.214C610.912 450.971 610.996 450.766 611.164 450.598C611.332 450.43 611.537 450.346 611.78 450.346C612.013 450.346 612.209 450.43 612.368 450.598C612.536 450.766 612.62 450.971 612.62 451.214C612.62 451.457 612.536 451.662 612.368 451.83C612.209 451.998 612.013 452.082 611.78 452.082ZM612.396 453.328V461H611.122V453.328H612.396ZM618.571 453.202C619.234 453.202 619.813 453.347 620.307 453.636C620.811 453.925 621.185 454.289 621.427 454.728V453.328H622.715V461.168C622.715 461.868 622.566 462.489 622.267 463.03C621.969 463.581 621.539 464.01 620.979 464.318C620.429 464.626 619.785 464.78 619.047 464.78C618.039 464.78 617.199 464.542 616.527 464.066C615.855 463.59 615.459 462.941 615.337 462.12H616.597C616.737 462.587 617.027 462.96 617.465 463.24C617.904 463.529 618.431 463.674 619.047 463.674C619.747 463.674 620.317 463.455 620.755 463.016C621.203 462.577 621.427 461.961 621.427 461.168V459.558C621.175 460.006 620.802 460.379 620.307 460.678C619.813 460.977 619.234 461.126 618.571 461.126C617.89 461.126 617.269 460.958 616.709 460.622C616.159 460.286 615.725 459.815 615.407 459.208C615.09 458.601 614.931 457.911 614.931 457.136C614.931 456.352 615.09 455.666 615.407 455.078C615.725 454.481 616.159 454.019 616.709 453.692C617.269 453.365 617.89 453.202 618.571 453.202ZM621.427 457.15C621.427 456.571 621.311 456.067 621.077 455.638C620.844 455.209 620.527 454.882 620.125 454.658C619.733 454.425 619.299 454.308 618.823 454.308C618.347 454.308 617.913 454.42 617.521 454.644C617.129 454.868 616.817 455.195 616.583 455.624C616.35 456.053 616.233 456.557 616.233 457.136C616.233 457.724 616.35 458.237 616.583 458.676C616.817 459.105 617.129 459.437 617.521 459.67C617.913 459.894 618.347 460.006 618.823 460.006C619.299 460.006 619.733 459.894 620.125 459.67C620.527 459.437 620.844 459.105 621.077 458.676C621.311 458.237 621.427 457.729 621.427 457.15ZM625.232 457.136C625.232 456.352 625.391 455.666 625.708 455.078C626.026 454.481 626.46 454.019 627.01 453.692C627.57 453.365 628.191 453.202 628.872 453.202C629.544 453.202 630.128 453.347 630.622 453.636C631.117 453.925 631.486 454.289 631.728 454.728V453.328H633.016V461H631.728V459.572C631.476 460.02 631.098 460.393 630.594 460.692C630.1 460.981 629.521 461.126 628.858 461.126C628.177 461.126 627.561 460.958 627.01 460.622C626.46 460.286 626.026 459.815 625.708 459.208C625.391 458.601 625.232 457.911 625.232 457.136ZM631.728 457.15C631.728 456.571 631.612 456.067 631.378 455.638C631.145 455.209 630.828 454.882 630.426 454.658C630.034 454.425 629.6 454.308 629.124 454.308C628.648 454.308 628.214 454.42 627.822 454.644C627.43 454.868 627.118 455.195 626.884 455.624C626.651 456.053 626.534 456.557 626.534 457.136C626.534 457.724 626.651 458.237 626.884 458.676C627.118 459.105 627.43 459.437 627.822 459.67C628.214 459.894 628.648 460.006 629.124 460.006C629.6 460.006 630.034 459.894 630.426 459.67C630.828 459.437 631.145 459.105 631.378 458.676C631.612 458.237 631.728 457.729 631.728 457.15ZM527.563 485L524.553 481.612V485H523.279V474.64H524.553V480.73L527.507 477.328H529.285L525.673 481.15L529.299 485H527.563ZM531.982 476.082C531.739 476.082 531.534 475.998 531.366 475.83C531.198 475.662 531.114 475.457 531.114 475.214C531.114 474.971 531.198 474.766 531.366 474.598C531.534 474.43 531.739 474.346 531.982 474.346C532.215 474.346 532.411 474.43 532.57 474.598C532.738 474.766 532.822 474.971 532.822 475.214C532.822 475.457 532.738 475.662 532.57 475.83C532.411 475.998 532.215 476.082 531.982 476.082ZM532.598 477.328V485H531.324V477.328H532.598ZM536.883 478.574C537.107 478.135 537.424 477.795 537.835 477.552C538.255 477.309 538.764 477.188 539.361 477.188V478.504H539.025C537.597 478.504 536.883 479.279 536.883 480.828V485H535.609V477.328H536.883V478.574ZM544.836 477.202C545.498 477.202 546.077 477.347 546.572 477.636C547.076 477.925 547.449 478.289 547.692 478.728V477.328H548.98V485.168C548.98 485.868 548.83 486.489 548.532 487.03C548.233 487.581 547.804 488.01 547.244 488.318C546.693 488.626 546.049 488.78 545.312 488.78C544.304 488.78 543.464 488.542 542.792 488.066C542.12 487.59 541.723 486.941 541.602 486.12H542.862C543.002 486.587 543.291 486.96 543.73 487.24C544.168 487.529 544.696 487.674 545.312 487.674C546.012 487.674 546.581 487.455 547.02 487.016C547.468 486.577 547.692 485.961 547.692 485.168V483.558C547.44 484.006 547.066 484.379 546.572 484.678C546.077 484.977 545.498 485.126 544.836 485.126C544.154 485.126 543.534 484.958 542.974 484.622C542.423 484.286 541.989 483.815 541.672 483.208C541.354 482.601 541.196 481.911 541.196 481.136C541.196 480.352 541.354 479.666 541.672 479.078C541.989 478.481 542.423 478.019 542.974 477.692C543.534 477.365 544.154 477.202 544.836 477.202ZM547.692 481.15C547.692 480.571 547.575 480.067 547.342 479.638C547.108 479.209 546.791 478.882 546.39 478.658C545.998 478.425 545.564 478.308 545.088 478.308C544.612 478.308 544.178 478.42 543.786 478.644C543.394 478.868 543.081 479.195 542.848 479.624C542.614 480.053 542.498 480.557 542.498 481.136C542.498 481.724 542.614 482.237 542.848 482.676C543.081 483.105 543.394 483.437 543.786 483.67C544.178 483.894 544.612 484.006 545.088 484.006C545.564 484.006 545.998 483.894 546.39 483.67C546.791 483.437 547.108 483.105 547.342 482.676C547.575 482.237 547.692 481.729 547.692 481.15ZM551.497 481.136C551.497 480.352 551.655 479.666 551.973 479.078C552.29 478.481 552.724 478.019 553.275 477.692C553.835 477.365 554.455 477.202 555.137 477.202C555.809 477.202 556.392 477.347 556.887 477.636C557.381 477.925 557.75 478.289 557.993 478.728V477.328H559.281V485H557.993V483.572C557.741 484.02 557.363 484.393 556.859 484.692C556.364 484.981 555.785 485.126 555.123 485.126C554.441 485.126 553.825 484.958 553.275 484.622C552.724 484.286 552.29 483.815 551.973 483.208C551.655 482.601 551.497 481.911 551.497 481.136ZM557.993 481.15C557.993 480.571 557.876 480.067 557.643 479.638C557.409 479.209 557.092 478.882 556.691 478.658C556.299 478.425 555.865 478.308 555.389 478.308C554.913 478.308 554.479 478.42 554.087 478.644C553.695 478.868 553.382 479.195 553.149 479.624C552.915 480.053 552.799 480.557 552.799 481.136C552.799 481.724 552.915 482.237 553.149 482.676C553.382 483.105 553.695 483.437 554.087 483.67C554.479 483.894 554.913 484.006 555.389 484.006C555.865 484.006 556.299 483.894 556.691 483.67C557.092 483.437 557.409 483.105 557.643 482.676C557.876 482.237 557.993 481.729 557.993 481.15ZM566.011 477.188C566.945 477.188 567.701 477.473 568.279 478.042C568.858 478.602 569.147 479.414 569.147 480.478V485H567.887V480.66C567.887 479.895 567.696 479.311 567.313 478.91C566.931 478.499 566.408 478.294 565.745 478.294C565.073 478.294 564.537 478.504 564.135 478.924C563.743 479.344 563.547 479.955 563.547 480.758V485H562.273V477.328H563.547V478.42C563.799 478.028 564.14 477.725 564.569 477.51C565.008 477.295 565.489 477.188 566.011 477.188ZM573.343 474.64V485H572.069V474.64H573.343ZM575.878 481.136C575.878 480.352 576.036 479.666 576.354 479.078C576.671 478.481 577.105 478.019 577.656 477.692C578.216 477.365 578.836 477.202 579.518 477.202C580.19 477.202 580.773 477.347 581.268 477.636C581.763 477.925 582.131 478.289 582.374 478.728V477.328H583.662V485H582.374V483.572C582.122 484.02 581.744 484.393 581.24 484.692C580.745 484.981 580.167 485.126 579.504 485.126C578.823 485.126 578.206 484.958 577.656 484.622C577.105 484.286 576.671 483.815 576.354 483.208C576.036 482.601 575.878 481.911 575.878 481.136ZM582.374 481.15C582.374 480.571 582.257 480.067 582.024 479.638C581.791 479.209 581.473 478.882 581.072 478.658C580.68 478.425 580.246 478.308 579.77 478.308C579.294 478.308 578.86 478.42 578.468 478.644C578.076 478.868 577.763 479.195 577.53 479.624C577.296 480.053 577.18 480.557 577.18 481.136C577.18 481.724 577.296 482.237 577.53 482.676C577.763 483.105 578.076 483.437 578.468 483.67C578.86 483.894 579.294 484.006 579.77 484.006C580.246 484.006 580.68 483.894 581.072 483.67C581.473 483.437 581.791 483.105 582.024 482.676C582.257 482.237 582.374 481.729 582.374 481.15ZM587.929 478.574C588.153 478.135 588.47 477.795 588.881 477.552C589.301 477.309 589.809 477.188 590.407 477.188V478.504H590.071C588.643 478.504 587.929 479.279 587.929 480.828V485H586.655V477.328H587.929V478.574Z" fill="#A6B1BB"/>
<path d="M691.954 457.098C691.31 457.098 690.731 456.986 690.218 456.762C689.714 456.529 689.317 456.211 689.028 455.81C688.738 455.399 688.589 454.928 688.58 454.396H689.938C689.984 454.853 690.171 455.241 690.498 455.558C690.834 455.866 691.319 456.02 691.954 456.02C692.56 456.02 693.036 455.871 693.382 455.572C693.736 455.264 693.914 454.872 693.914 454.396C693.914 454.023 693.811 453.719 693.606 453.486C693.4 453.253 693.144 453.075 692.836 452.954C692.528 452.833 692.112 452.702 691.59 452.562C690.946 452.394 690.428 452.226 690.036 452.058C689.653 451.89 689.322 451.629 689.042 451.274C688.771 450.91 688.636 450.425 688.636 449.818C688.636 449.286 688.771 448.815 689.042 448.404C689.312 447.993 689.69 447.676 690.176 447.452C690.67 447.228 691.235 447.116 691.87 447.116C692.784 447.116 693.531 447.345 694.11 447.802C694.698 448.259 695.029 448.866 695.104 449.622H693.704C693.657 449.249 693.461 448.922 693.116 448.642C692.77 448.353 692.313 448.208 691.744 448.208C691.212 448.208 690.778 448.348 690.442 448.628C690.106 448.899 689.938 449.281 689.938 449.776C689.938 450.131 690.036 450.42 690.232 450.644C690.437 450.868 690.684 451.041 690.974 451.162C691.272 451.274 691.688 451.405 692.22 451.554C692.864 451.731 693.382 451.909 693.774 452.086C694.166 452.254 694.502 452.52 694.782 452.884C695.062 453.239 695.202 453.724 695.202 454.34C695.202 454.816 695.076 455.264 694.824 455.684C694.572 456.104 694.198 456.445 693.704 456.706C693.209 456.967 692.626 457.098 691.954 457.098ZM701.263 457.126C700.544 457.126 699.891 456.963 699.303 456.636C698.724 456.309 698.267 455.847 697.931 455.25C697.604 454.643 697.441 453.943 697.441 453.15C697.441 452.366 697.609 451.675 697.945 451.078C698.29 450.471 698.757 450.009 699.345 449.692C699.933 449.365 700.591 449.202 701.319 449.202C702.047 449.202 702.705 449.365 703.293 449.692C703.881 450.009 704.343 450.467 704.679 451.064C705.024 451.661 705.197 452.357 705.197 453.15C705.197 453.943 705.019 454.643 704.665 455.25C704.319 455.847 703.848 456.309 703.251 456.636C702.653 456.963 701.991 457.126 701.263 457.126ZM701.263 456.006C701.72 456.006 702.149 455.899 702.551 455.684C702.952 455.469 703.274 455.147 703.517 454.718C703.769 454.289 703.895 453.766 703.895 453.15C703.895 452.534 703.773 452.011 703.531 451.582C703.288 451.153 702.971 450.835 702.579 450.63C702.187 450.415 701.762 450.308 701.305 450.308C700.838 450.308 700.409 450.415 700.017 450.63C699.634 450.835 699.326 451.153 699.093 451.582C698.859 452.011 698.743 452.534 698.743 453.15C698.743 453.775 698.855 454.303 699.079 454.732C699.312 455.161 699.62 455.483 700.003 455.698C700.385 455.903 700.805 456.006 701.263 456.006ZM709.266 450.378V454.9C709.266 455.273 709.345 455.539 709.504 455.698C709.662 455.847 709.938 455.922 710.33 455.922H711.268V457H710.12C709.41 457 708.878 456.837 708.524 456.51C708.169 456.183 707.992 455.647 707.992 454.9V450.378H706.998V449.328H707.992V447.396H709.266V449.328H711.268V450.378H709.266ZM714.309 448.082C714.067 448.082 713.861 447.998 713.693 447.83C713.525 447.662 713.441 447.457 713.441 447.214C713.441 446.971 713.525 446.766 713.693 446.598C713.861 446.43 714.067 446.346 714.309 446.346C714.543 446.346 714.739 446.43 714.897 446.598C715.065 446.766 715.149 446.971 715.149 447.214C715.149 447.457 715.065 447.662 714.897 447.83C714.739 447.998 714.543 448.082 714.309 448.082ZM714.925 449.328V457H713.651V449.328H714.925ZM719.211 450.756C719.472 450.299 719.855 449.925 720.359 449.636C720.863 449.347 721.437 449.202 722.081 449.202C722.771 449.202 723.392 449.365 723.943 449.692C724.493 450.019 724.927 450.481 725.245 451.078C725.562 451.666 725.721 452.352 725.721 453.136C725.721 453.911 725.562 454.601 725.245 455.208C724.927 455.815 724.489 456.286 723.929 456.622C723.378 456.958 722.762 457.126 722.081 457.126C721.418 457.126 720.835 456.981 720.331 456.692C719.836 456.403 719.463 456.034 719.211 455.586V457H717.937V446.64H719.211V450.756ZM724.419 453.136C724.419 452.557 724.302 452.053 724.069 451.624C723.835 451.195 723.518 450.868 723.117 450.644C722.725 450.42 722.291 450.308 721.815 450.308C721.348 450.308 720.914 450.425 720.513 450.658C720.121 450.882 719.803 451.213 719.561 451.652C719.327 452.081 719.211 452.581 719.211 453.15C719.211 453.729 719.327 454.237 719.561 454.676C719.803 455.105 720.121 455.437 720.513 455.67C720.914 455.894 721.348 456.006 721.815 456.006C722.291 456.006 722.725 455.894 723.117 455.67C723.518 455.437 723.835 455.105 724.069 454.676C724.302 454.237 724.419 453.724 724.419 453.136ZM736.156 457.126C735.437 457.126 734.784 456.963 734.196 456.636C733.617 456.309 733.16 455.847 732.824 455.25C732.497 454.643 732.334 453.943 732.334 453.15C732.334 452.366 732.502 451.675 732.838 451.078C733.183 450.471 733.65 450.009 734.238 449.692C734.826 449.365 735.484 449.202 736.212 449.202C736.94 449.202 737.598 449.365 738.186 449.692C738.774 450.009 739.236 450.467 739.572 451.064C739.917 451.661 740.09 452.357 740.09 453.15C740.09 453.943 739.913 454.643 739.558 455.25C739.213 455.847 738.741 456.309 738.144 456.636C737.547 456.963 736.884 457.126 736.156 457.126ZM736.156 456.006C736.613 456.006 737.043 455.899 737.444 455.684C737.845 455.469 738.167 455.147 738.41 454.718C738.662 454.289 738.788 453.766 738.788 453.15C738.788 452.534 738.667 452.011 738.424 451.582C738.181 451.153 737.864 450.835 737.472 450.63C737.08 450.415 736.655 450.308 736.198 450.308C735.731 450.308 735.302 450.415 734.91 450.63C734.527 450.835 734.219 451.153 733.986 451.582C733.753 452.011 733.636 452.534 733.636 453.15C733.636 453.775 733.748 454.303 733.972 454.732C734.205 455.161 734.513 455.483 734.896 455.698C735.279 455.903 735.699 456.006 736.156 456.006ZM743.879 446.64V457H742.605V446.64H743.879ZM750.054 449.202C750.717 449.202 751.296 449.347 751.79 449.636C752.294 449.925 752.668 450.289 752.91 450.728V449.328H754.198V457.168C754.198 457.868 754.049 458.489 753.75 459.03C753.452 459.581 753.022 460.01 752.462 460.318C751.912 460.626 751.268 460.78 750.53 460.78C749.522 460.78 748.682 460.542 748.01 460.066C747.338 459.59 746.942 458.941 746.82 458.12H748.08C748.22 458.587 748.51 458.96 748.948 459.24C749.387 459.529 749.914 459.674 750.53 459.674C751.23 459.674 751.8 459.455 752.238 459.016C752.686 458.577 752.91 457.961 752.91 457.168V455.558C752.658 456.006 752.285 456.379 751.79 456.678C751.296 456.977 750.717 457.126 750.054 457.126C749.373 457.126 748.752 456.958 748.192 456.622C747.642 456.286 747.208 455.815 746.89 455.208C746.573 454.601 746.414 453.911 746.414 453.136C746.414 452.352 746.573 451.666 746.89 451.078C747.208 450.481 747.642 450.019 748.192 449.692C748.752 449.365 749.373 449.202 750.054 449.202ZM752.91 453.15C752.91 452.571 752.794 452.067 752.56 451.638C752.327 451.209 752.01 450.882 751.608 450.658C751.216 450.425 750.782 450.308 750.306 450.308C749.83 450.308 749.396 450.42 749.004 450.644C748.612 450.868 748.3 451.195 748.066 451.624C747.833 452.053 747.716 452.557 747.716 453.136C747.716 453.724 747.833 454.237 748.066 454.676C748.3 455.105 748.612 455.437 749.004 455.67C749.396 455.894 749.83 456.006 750.306 456.006C750.782 456.006 751.216 455.894 751.608 455.67C752.01 455.437 752.327 455.105 752.56 454.676C752.794 454.237 752.91 453.729 752.91 453.15ZM756.715 453.136C756.715 452.352 756.874 451.666 757.191 451.078C757.509 450.481 757.943 450.019 758.493 449.692C759.053 449.365 759.674 449.202 760.355 449.202C761.027 449.202 761.611 449.347 762.105 449.636C762.6 449.925 762.969 450.289 763.211 450.728V449.328H764.499V457H763.211V455.572C762.959 456.02 762.581 456.393 762.077 456.692C761.583 456.981 761.004 457.126 760.341 457.126C759.66 457.126 759.044 456.958 758.493 456.622C757.943 456.286 757.509 455.815 757.191 455.208C756.874 454.601 756.715 453.911 756.715 453.136ZM763.211 453.15C763.211 452.571 763.095 452.067 762.861 451.638C762.628 451.209 762.311 450.882 761.909 450.658C761.517 450.425 761.083 450.308 760.607 450.308C760.131 450.308 759.697 450.42 759.305 450.644C758.913 450.868 758.601 451.195 758.367 451.624C758.134 452.053 758.017 452.557 758.017 453.136C758.017 453.724 758.134 454.237 758.367 454.676C758.601 455.105 758.913 455.437 759.305 455.67C759.697 455.894 760.131 456.006 760.607 456.006C761.083 456.006 761.517 455.894 761.909 455.67C762.311 455.437 762.628 455.105 762.861 454.676C763.095 454.237 763.211 453.729 763.211 453.15ZM771.23 449.188C772.164 449.188 772.92 449.473 773.498 450.042C774.077 450.602 774.366 451.414 774.366 452.478V457H773.106V452.66C773.106 451.895 772.915 451.311 772.532 450.91C772.15 450.499 771.627 450.294 770.964 450.294C770.292 450.294 769.756 450.504 769.354 450.924C768.962 451.344 768.766 451.955 768.766 452.758V457H767.492V449.328H768.766V450.42C769.018 450.028 769.359 449.725 769.788 449.51C770.227 449.295 770.708 449.188 771.23 449.188ZM778.561 446.64V457H777.287V446.64H778.561ZM781.097 453.136C781.097 452.352 781.255 451.666 781.573 451.078C781.89 450.481 782.324 450.019 782.875 449.692C783.435 449.365 784.055 449.202 784.737 449.202C785.409 449.202 785.992 449.347 786.487 449.636C786.981 449.925 787.35 450.289 787.593 450.728V449.328H788.881V457H787.593V455.572C787.341 456.02 786.963 456.393 786.459 456.692C785.964 456.981 785.385 457.126 784.723 457.126C784.041 457.126 783.425 456.958 782.875 456.622C782.324 456.286 781.89 455.815 781.573 455.208C781.255 454.601 781.097 453.911 781.097 453.136ZM787.593 453.15C787.593 452.571 787.476 452.067 787.243 451.638C787.009 451.209 786.692 450.882 786.291 450.658C785.899 450.425 785.465 450.308 784.989 450.308C784.513 450.308 784.079 450.42 783.687 450.644C783.295 450.868 782.982 451.195 782.749 451.624C782.515 452.053 782.399 452.557 782.399 453.136C782.399 453.724 782.515 454.237 782.749 454.676C782.982 455.105 783.295 455.437 783.687 455.67C784.079 455.894 784.513 456.006 784.989 456.006C785.465 456.006 785.899 455.894 786.291 455.67C786.692 455.437 787.009 455.105 787.243 454.676C787.476 454.237 787.593 453.729 787.593 453.15ZM793.148 450.574C793.372 450.135 793.689 449.795 794.1 449.552C794.52 449.309 795.028 449.188 795.626 449.188V450.504H795.29C793.862 450.504 793.148 451.279 793.148 452.828V457H791.874V449.328H793.148V450.574Z" fill="#A6B1BB"/>
<path d="M864.204 447.242V457H862.93V447.242H864.204ZM868.168 455.95H871.934V457H866.712V455.95L870.436 450.364H866.74V449.328H871.906V450.364L868.168 455.95ZM877.773 457.126C877.054 457.126 876.401 456.963 875.813 456.636C875.234 456.309 874.777 455.847 874.441 455.25C874.114 454.643 873.951 453.943 873.951 453.15C873.951 452.366 874.119 451.675 874.455 451.078C874.8 450.471 875.267 450.009 875.855 449.692C876.443 449.365 877.101 449.202 877.829 449.202C878.557 449.202 879.215 449.365 879.803 449.692C880.391 450.009 880.853 450.467 881.189 451.064C881.534 451.661 881.707 452.357 881.707 453.15C881.707 453.943 881.53 454.643 881.175 455.25C880.83 455.847 880.358 456.309 879.761 456.636C879.164 456.963 878.501 457.126 877.773 457.126ZM877.773 456.006C878.23 456.006 878.66 455.899 879.061 455.684C879.462 455.469 879.784 455.147 880.027 454.718C880.279 454.289 880.405 453.766 880.405 453.15C880.405 452.534 880.284 452.011 880.041 451.582C879.798 451.153 879.481 450.835 879.089 450.63C878.697 450.415 878.272 450.308 877.815 450.308C877.348 450.308 876.919 450.415 876.527 450.63C876.144 450.835 875.836 451.153 875.603 451.582C875.37 452.011 875.253 452.534 875.253 453.15C875.253 453.775 875.365 454.303 875.589 454.732C875.822 455.161 876.13 455.483 876.513 455.698C876.896 455.903 877.316 456.006 877.773 456.006ZM888.03 449.188C888.609 449.188 889.131 449.314 889.598 449.566C890.065 449.809 890.429 450.177 890.69 450.672C890.961 451.167 891.096 451.769 891.096 452.478V457H889.836V452.66C889.836 451.895 889.645 451.311 889.262 450.91C888.879 450.499 888.357 450.294 887.694 450.294C887.022 450.294 886.485 450.504 886.084 450.924C885.692 451.344 885.496 451.955 885.496 452.758V457H884.222V446.64H885.496V450.42C885.748 450.028 886.093 449.725 886.532 449.51C886.98 449.295 887.479 449.188 888.03 449.188ZM898.113 453.136C898.113 452.352 898.272 451.666 898.589 451.078C898.907 450.481 899.341 450.019 899.891 449.692C900.451 449.365 901.077 449.202 901.767 449.202C902.43 449.202 903.009 449.351 903.503 449.65C904.007 449.939 904.376 450.299 904.609 450.728V449.328H905.897V460.64H904.609V455.586C904.367 456.015 903.993 456.379 903.489 456.678C902.985 456.977 902.397 457.126 901.725 457.126C901.053 457.126 900.442 456.958 899.891 456.622C899.341 456.286 898.907 455.815 898.589 455.208C898.272 454.601 898.113 453.911 898.113 453.136ZM904.609 453.15C904.609 452.571 904.493 452.067 904.259 451.638C904.026 451.209 903.709 450.882 903.307 450.658C902.915 450.425 902.481 450.308 902.005 450.308C901.529 450.308 901.095 450.42 900.703 450.644C900.311 450.868 899.999 451.195 899.765 451.624C899.532 452.053 899.415 452.557 899.415 453.136C899.415 453.724 899.532 454.237 899.765 454.676C899.999 455.105 900.311 455.437 900.703 455.67C901.095 455.894 901.529 456.006 902.005 456.006C902.481 456.006 902.915 455.894 903.307 455.67C903.709 455.437 904.026 455.105 904.259 454.676C904.493 454.237 904.609 453.729 904.609 453.15ZM912.236 457.126C911.518 457.126 910.864 456.963 910.276 456.636C909.698 456.309 909.24 455.847 908.904 455.25C908.578 454.643 908.414 453.943 908.414 453.15C908.414 452.366 908.582 451.675 908.918 451.078C909.264 450.471 909.73 450.009 910.318 449.692C910.906 449.365 911.564 449.202 912.292 449.202C913.02 449.202 913.678 449.365 914.266 449.692C914.854 450.009 915.316 450.467 915.652 451.064C915.998 451.661 916.17 452.357 916.17 453.15C916.17 453.943 915.993 454.643 915.638 455.25C915.293 455.847 914.822 456.309 914.224 456.636C913.627 456.963 912.964 457.126 912.236 457.126ZM912.236 456.006C912.694 456.006 913.123 455.899 913.524 455.684C913.926 455.469 914.248 455.147 914.49 454.718C914.742 454.289 914.868 453.766 914.868 453.15C914.868 452.534 914.747 452.011 914.504 451.582C914.262 451.153 913.944 450.835 913.552 450.63C913.16 450.415 912.736 450.308 912.278 450.308C911.812 450.308 911.382 450.415 910.99 450.63C910.608 450.835 910.3 451.153 910.066 451.582C909.833 452.011 909.716 452.534 909.716 453.15C909.716 453.775 909.828 454.303 910.052 454.732C910.286 455.161 910.594 455.483 910.976 455.698C911.359 455.903 911.779 456.006 912.236 456.006ZM919.959 446.64V457H918.685V446.64H919.959ZM922.495 453.136C922.495 452.352 922.653 451.666 922.971 451.078C923.288 450.481 923.722 450.019 924.273 449.692C924.833 449.365 925.458 449.202 926.149 449.202C926.746 449.202 927.301 449.342 927.815 449.622C928.328 449.893 928.72 450.252 928.991 450.7V446.64H930.279V457H928.991V455.558C928.739 456.015 928.365 456.393 927.871 456.692C927.376 456.981 926.797 457.126 926.135 457.126C925.453 457.126 924.833 456.958 924.273 456.622C923.722 456.286 923.288 455.815 922.971 455.208C922.653 454.601 922.495 453.911 922.495 453.136ZM928.991 453.15C928.991 452.571 928.874 452.067 928.641 451.638C928.407 451.209 928.09 450.882 927.689 450.658C927.297 450.425 926.863 450.308 926.387 450.308C925.911 450.308 925.477 450.42 925.085 450.644C924.693 450.868 924.38 451.195 924.147 451.624C923.913 452.053 923.797 452.557 923.797 453.136C923.797 453.724 923.913 454.237 924.147 454.676C924.38 455.105 924.693 455.437 925.085 455.67C925.477 455.894 925.911 456.006 926.387 456.006C926.863 456.006 927.297 455.894 927.689 455.67C928.09 455.437 928.407 455.105 928.641 454.676C928.874 454.237 928.991 453.729 928.991 453.15ZM933.93 448.082C933.687 448.082 933.482 447.998 933.314 447.83C933.146 447.662 933.062 447.457 933.062 447.214C933.062 446.971 933.146 446.766 933.314 446.598C933.482 446.43 933.687 446.346 933.93 446.346C934.163 446.346 934.359 446.43 934.518 446.598C934.686 446.766 934.77 446.971 934.77 447.214C934.77 447.457 934.686 447.662 934.518 447.83C934.359 447.998 934.163 448.082 933.93 448.082ZM934.546 449.328V457H933.272V449.328H934.546ZM938.831 450.574C939.055 450.135 939.372 449.795 939.783 449.552C940.203 449.309 940.712 449.188 941.309 449.188V450.504H940.973C939.545 450.504 938.831 451.279 938.831 452.828V457H937.557V449.328H938.831V450.574ZM946.784 449.202C947.446 449.202 948.025 449.347 948.52 449.636C949.024 449.925 949.397 450.289 949.64 450.728V449.328H950.928V457.168C950.928 457.868 950.778 458.489 950.48 459.03C950.181 459.581 949.752 460.01 949.192 460.318C948.641 460.626 947.997 460.78 947.26 460.78C946.252 460.78 945.412 460.542 944.74 460.066C944.068 459.59 943.671 458.941 943.55 458.12H944.81C944.95 458.587 945.239 458.96 945.678 459.24C946.116 459.529 946.644 459.674 947.26 459.674C947.96 459.674 948.529 459.455 948.968 459.016C949.416 458.577 949.64 457.961 949.64 457.168V455.558C949.388 456.006 949.014 456.379 948.52 456.678C948.025 456.977 947.446 457.126 946.784 457.126C946.102 457.126 945.482 456.958 944.922 456.622C944.371 456.286 943.937 455.815 943.62 455.208C943.302 454.601 943.144 453.911 943.144 453.136C943.144 452.352 943.302 451.666 943.62 451.078C943.937 450.481 944.371 450.019 944.922 449.692C945.482 449.365 946.102 449.202 946.784 449.202ZM949.64 453.15C949.64 452.571 949.523 452.067 949.29 451.638C949.056 451.209 948.739 450.882 948.338 450.658C947.946 450.425 947.512 450.308 947.036 450.308C946.56 450.308 946.126 450.42 945.734 450.644C945.342 450.868 945.029 451.195 944.796 451.624C944.562 452.053 944.446 452.557 944.446 453.136C944.446 453.724 944.562 454.237 944.796 454.676C945.029 455.105 945.342 455.437 945.734 455.67C946.126 455.894 946.56 456.006 947.036 456.006C947.512 456.006 947.946 455.894 948.338 455.67C948.739 455.437 949.056 455.105 949.29 454.676C949.523 454.237 949.64 453.729 949.64 453.15ZM953.445 453.136C953.445 452.352 953.603 451.666 953.921 451.078C954.238 450.481 954.672 450.019 955.223 449.692C955.783 449.365 956.403 449.202 957.085 449.202C957.757 449.202 958.34 449.347 958.835 449.636C959.329 449.925 959.698 450.289 959.941 450.728V449.328H961.229V457H959.941V455.572C959.689 456.02 959.311 456.393 958.807 456.692C958.312 456.981 957.733 457.126 957.071 457.126C956.389 457.126 955.773 456.958 955.223 456.622C954.672 456.286 954.238 455.815 953.921 455.208C953.603 454.601 953.445 453.911 953.445 453.136ZM959.941 453.15C959.941 452.571 959.824 452.067 959.591 451.638C959.357 451.209 959.04 450.882 958.639 450.658C958.247 450.425 957.813 450.308 957.337 450.308C956.861 450.308 956.427 450.42 956.035 450.644C955.643 450.868 955.33 451.195 955.097 451.624C954.863 452.053 954.747 452.557 954.747 453.136C954.747 453.724 954.863 454.237 955.097 454.676C955.33 455.105 955.643 455.437 956.035 455.67C956.427 455.894 956.861 456.006 957.337 456.006C957.813 456.006 958.247 455.894 958.639 455.67C959.04 455.437 959.357 455.105 959.591 454.676C959.824 454.237 959.941 453.729 959.941 453.15ZM967.96 449.188C968.893 449.188 969.649 449.473 970.228 450.042C970.806 450.602 971.096 451.414 971.096 452.478V457H969.836V452.66C969.836 451.895 969.644 451.311 969.262 450.91C968.879 450.499 968.356 450.294 967.694 450.294C967.022 450.294 966.485 450.504 966.084 450.924C965.692 451.344 965.496 451.955 965.496 452.758V457H964.222V449.328H965.496V450.42C965.748 450.028 966.088 449.725 966.518 449.51C966.956 449.295 967.437 449.188 967.96 449.188ZM975.291 446.64V457H974.017V446.64H975.291ZM977.826 453.136C977.826 452.352 977.985 451.666 978.302 451.078C978.619 450.481 979.053 450.019 979.604 449.692C980.164 449.365 980.785 449.202 981.466 449.202C982.138 449.202 982.721 449.347 983.216 449.636C983.711 449.925 984.079 450.289 984.322 450.728V449.328H985.61V457H984.322V455.572C984.07 456.02 983.692 456.393 983.188 456.692C982.693 456.981 982.115 457.126 981.452 457.126C980.771 457.126 980.155 456.958 979.604 456.622C979.053 456.286 978.619 455.815 978.302 455.208C977.985 454.601 977.826 453.911 977.826 453.136ZM984.322 453.15C984.322 452.571 984.205 452.067 983.972 451.638C983.739 451.209 983.421 450.882 983.02 450.658C982.628 450.425 982.194 450.308 981.718 450.308C981.242 450.308 980.808 450.42 980.416 450.644C980.024 450.868 979.711 451.195 979.478 451.624C979.245 452.053 979.128 452.557 979.128 453.136C979.128 453.724 979.245 454.237 979.478 454.676C979.711 455.105 980.024 455.437 980.416 455.67C980.808 455.894 981.242 456.006 981.718 456.006C982.194 456.006 982.628 455.894 983.02 455.67C983.421 455.437 983.739 455.105 983.972 454.676C984.205 454.237 984.322 453.729 984.322 453.15ZM989.877 450.574C990.101 450.135 990.418 449.795 990.829 449.552C991.249 449.309 991.758 449.188 992.355 449.188V450.504H992.019C990.591 450.504 989.877 451.279 989.877 452.828V457H988.603V449.328H989.877V450.574Z" fill="#A6B1BB"/>
<path d="M50.9451 413.12C50.9451 411.286 51.2438 409.856 51.8411 408.832C52.4385 407.798 53.4838 407.28 54.9771 407.28C56.4598 407.28 57.4998 407.798 58.0971 408.832C58.6945 409.856 58.9931 411.286 58.9931 413.12C58.9931 414.987 58.6945 416.438 58.0971 417.472C57.4998 418.507 56.4598 419.024 54.9771 419.024C53.4838 419.024 52.4385 418.507 51.8411 417.472C51.2438 416.438 50.9451 414.987 50.9451 413.12ZM57.5531 413.12C57.5531 412.192 57.4891 411.408 57.3611 410.768C57.2438 410.118 56.9931 409.595 56.6091 409.2C56.2358 408.806 55.6918 408.608 54.9771 408.608C54.2518 408.608 53.6971 408.806 53.3131 409.2C52.9398 409.595 52.6891 410.118 52.5611 410.768C52.4438 411.408 52.3851 412.192 52.3851 413.12C52.3851 414.08 52.4438 414.886 52.5611 415.536C52.6891 416.187 52.9398 416.71 53.3131 417.104C53.6971 417.499 54.2518 417.696 54.9771 417.696C55.6918 417.696 56.2358 417.499 56.6091 417.104C56.9931 416.71 57.2438 416.187 57.3611 415.536C57.4891 414.886 57.5531 414.08 57.5531 413.12Z" fill="#A6B1BB"/>
<path d="M41.566 370.826C42.9207 369.738 43.982 368.847 44.75 368.154C45.518 367.45 46.1633 366.719 46.686 365.962C47.2193 365.194 47.486 364.442 47.486 363.706C47.486 363.012 47.3153 362.468 46.974 362.074C46.6433 361.668 46.1047 361.466 45.358 361.466C44.6327 361.466 44.0673 361.695 43.662 362.154C43.2673 362.602 43.054 363.204 43.022 363.962H41.614C41.6567 362.767 42.0193 361.844 42.702 361.194C43.3847 360.543 44.2647 360.218 45.342 360.218C46.4407 360.218 47.31 360.522 47.95 361.13C48.6007 361.738 48.926 362.575 48.926 363.642C48.926 364.527 48.6593 365.391 48.126 366.234C47.6033 367.066 47.006 367.802 46.334 368.442C45.662 369.071 44.8033 369.807 43.758 370.65H49.262V371.866H41.566V370.826ZM50.9451 366.09C50.9451 364.255 51.2438 362.826 51.8411 361.802C52.4385 360.767 53.4838 360.25 54.9771 360.25C56.4598 360.25 57.4998 360.767 58.0971 361.802C58.6945 362.826 58.9931 364.255 58.9931 366.09C58.9931 367.956 58.6945 369.407 58.0971 370.442C57.4998 371.476 56.4598 371.994 54.9771 371.994C53.4838 371.994 52.4385 371.476 51.8411 370.442C51.2438 369.407 50.9451 367.956 50.9451 366.09ZM57.5531 366.09C57.5531 365.162 57.4891 364.378 57.3611 363.738C57.2438 363.087 56.9931 362.564 56.6091 362.17C56.2358 361.775 55.6918 361.578 54.9771 361.578C54.2518 361.578 53.6971 361.775 53.3131 362.17C52.9398 362.564 52.6891 363.087 52.5611 363.738C52.4438 364.378 52.3851 365.162 52.3851 366.09C52.3851 367.05 52.4438 367.855 52.5611 368.506C52.6891 369.156 52.9398 369.679 53.3131 370.074C53.6971 370.468 54.2518 370.666 54.9771 370.666C55.6918 370.666 56.2358 370.468 56.6091 370.074C56.9931 369.679 57.2438 369.156 57.3611 368.506C57.4891 367.855 57.5531 367.05 57.5531 366.09Z" fill="#A6B1BB"/>
<path d="M40.5306 318.387V317.283L46.1466 309.507H47.8906V317.123H49.4906V318.387H47.8906V320.963H46.4506V318.387H40.5306ZM46.5146 311.027L42.2106 317.123H46.5146V311.027ZM50.9451 315.059C50.9451 313.224 51.2438 311.795 51.8411 310.771C52.4385 309.736 53.4838 309.219 54.9771 309.219C56.4598 309.219 57.4998 309.736 58.0971 310.771C58.6945 311.795 58.9931 313.224 58.9931 315.059C58.9931 316.925 58.6945 318.376 58.0971 319.411C57.4998 320.445 56.4598 320.963 54.9771 320.963C53.4838 320.963 52.4385 320.445 51.8411 319.411C51.2438 318.376 50.9451 316.925 50.9451 315.059ZM57.5531 315.059C57.5531 314.131 57.4891 313.347 57.3611 312.707C57.2438 312.056 56.9931 311.533 56.6091 311.139C56.2358 310.744 55.6918 310.547 54.9771 310.547C54.2518 310.547 53.6971 310.744 53.3131 311.139C52.9398 311.533 52.6891 312.056 52.5611 312.707C52.4438 313.347 52.3851 314.131 52.3851 315.059C52.3851 316.019 52.4438 316.824 52.5611 317.475C52.6891 318.125 52.9398 318.648 53.3131 319.043C53.6971 319.437 54.2518 319.635 54.9771 319.635C55.6918 319.635 56.2358 319.437 56.6091 319.043C56.9931 318.648 57.2438 318.125 57.3611 317.475C57.4891 316.824 57.5531 316.019 57.5531 315.059Z" fill="#A6B1BB"/>
<path d="M47.2369 262.473C47.0022 261.289 46.2715 260.697 45.0449 260.697C44.0955 260.697 43.3862 261.065 42.9169 261.801C42.4475 262.526 42.2182 263.726 42.2289 265.401C42.4742 264.846 42.8795 264.414 43.4449 264.105C44.0209 263.785 44.6609 263.625 45.3649 263.625C46.4635 263.625 47.3382 263.966 47.9889 264.649C48.6502 265.332 48.9809 266.276 48.9809 267.481C48.9809 268.206 48.8369 268.857 48.5489 269.433C48.2715 270.009 47.8449 270.468 47.2689 270.809C46.7035 271.15 46.0155 271.321 45.2049 271.321C44.1062 271.321 43.2475 271.076 42.6289 270.585C42.0102 270.094 41.5782 269.417 41.3329 268.553C41.0875 267.689 40.9649 266.622 40.9649 265.353C40.9649 261.438 42.3302 259.481 45.0609 259.481C46.1062 259.481 46.9275 259.764 47.5249 260.329C48.1222 260.894 48.4742 261.609 48.5809 262.473H47.2369ZM45.0609 264.857C44.6022 264.857 44.1702 264.953 43.7649 265.145C43.3595 265.326 43.0289 265.609 42.7729 265.993C42.5275 266.366 42.4049 266.825 42.4049 267.369C42.4049 268.18 42.6395 268.841 43.1089 269.353C43.5782 269.854 44.2502 270.105 45.1249 270.105C45.8715 270.105 46.4635 269.876 46.9009 269.417C47.3489 268.948 47.5729 268.318 47.5729 267.529C47.5729 266.697 47.3595 266.046 46.9329 265.577C46.5062 265.097 45.8822 264.857 45.0609 264.857ZM50.9451 265.385C50.9451 263.55 51.2438 262.121 51.8411 261.097C52.4385 260.062 53.4838 259.545 54.9771 259.545C56.4598 259.545 57.4998 260.062 58.0971 261.097C58.6945 262.121 58.9931 263.55 58.9931 265.385C58.9931 267.252 58.6945 268.702 58.0971 269.737C57.4998 270.772 56.4598 271.289 54.9771 271.289C53.4838 271.289 52.4385 270.772 51.8411 269.737C51.2438 268.702 50.9451 267.252 50.9451 265.385ZM57.5531 265.385C57.5531 264.457 57.4891 263.673 57.3611 263.033C57.2438 262.382 56.9931 261.86 56.6091 261.465C56.2358 261.07 55.6918 260.873 54.9771 260.873C54.2518 260.873 53.6971 261.07 53.3131 261.465C52.9398 261.86 52.6891 262.382 52.5611 263.033C52.4438 263.673 52.3851 264.457 52.3851 265.385C52.3851 266.345 52.4438 267.15 52.5611 267.801C52.6891 268.452 52.9398 268.974 53.3131 269.369C53.6971 269.764 54.2518 269.961 54.9771 269.961C55.6918 269.961 56.2358 269.764 56.6091 269.369C56.9931 268.974 57.2438 268.452 57.3611 267.801C57.4891 267.15 57.5531 266.345 57.5531 265.385Z" fill="#A6B1BB"/>
<path d="M42.9634 214.242C42.366 214.007 41.9074 213.666 41.5874 213.218C41.2674 212.77 41.1074 212.226 41.1074 211.586C41.1074 211.01 41.2514 210.492 41.5394 210.034C41.8274 209.564 42.254 209.196 42.8194 208.93C43.3954 208.652 44.0887 208.514 44.8994 208.514C45.71 208.514 46.398 208.652 46.9634 208.93C47.5394 209.196 47.9714 209.564 48.2594 210.034C48.558 210.492 48.7074 211.01 48.7074 211.586C48.7074 212.204 48.542 212.748 48.2114 213.218C47.8807 213.676 47.4274 214.018 46.8514 214.242C47.5127 214.444 48.0354 214.802 48.4194 215.314C48.814 215.815 49.0114 216.423 49.0114 217.138C49.0114 217.831 48.8407 218.439 48.4994 218.962C48.158 219.474 47.6727 219.874 47.0434 220.162C46.4247 220.439 45.71 220.578 44.8994 220.578C44.0887 220.578 43.374 220.439 42.7554 220.162C42.1474 219.874 41.6727 219.474 41.3314 218.962C40.99 218.439 40.8194 217.831 40.8194 217.138C40.8194 216.423 41.0114 215.81 41.3954 215.298C41.7794 214.786 42.302 214.434 42.9634 214.242ZM47.2994 211.762C47.2994 211.111 47.086 210.61 46.6594 210.258C46.2327 209.906 45.646 209.73 44.8994 209.73C44.1634 209.73 43.582 209.906 43.1554 210.258C42.7287 210.61 42.5154 211.116 42.5154 211.778C42.5154 212.375 42.734 212.855 43.1714 213.218C43.6194 213.58 44.1954 213.762 44.8994 213.762C45.614 213.762 46.19 213.58 46.6274 213.218C47.0754 212.844 47.2994 212.359 47.2994 211.762ZM44.8994 214.882C44.11 214.882 43.4647 215.068 42.9634 215.442C42.462 215.804 42.2114 216.354 42.2114 217.09C42.2114 217.772 42.4514 218.322 42.9314 218.738C43.422 219.154 44.078 219.362 44.8994 219.362C45.7207 219.362 46.3714 219.154 46.8514 218.738C47.3314 218.322 47.5714 217.772 47.5714 217.09C47.5714 216.375 47.326 215.831 46.8354 215.458C46.3447 215.074 45.6994 214.882 44.8994 214.882ZM50.9451 214.354C50.9451 212.519 51.2438 211.09 51.8411 210.066C52.4385 209.031 53.4838 208.514 54.9771 208.514C56.4598 208.514 57.4998 209.031 58.0971 210.066C58.6945 211.09 58.9931 212.519 58.9931 214.354C58.9931 216.22 58.6945 217.671 58.0971 218.706C57.4998 219.74 56.4598 220.258 54.9771 220.258C53.4838 220.258 52.4385 219.74 51.8411 218.706C51.2438 217.671 50.9451 216.22 50.9451 214.354ZM57.5531 214.354C57.5531 213.426 57.4891 212.642 57.3611 212.002C57.2438 211.351 56.9931 210.828 56.6091 210.434C56.2358 210.039 55.6918 209.842 54.9771 209.842C54.2518 209.842 53.6971 210.039 53.3131 210.434C52.9398 210.828 52.6891 211.351 52.5611 212.002C52.4438 212.642 52.3851 213.426 52.3851 214.354C52.3851 215.314 52.4438 216.119 52.5611 216.77C52.6891 217.42 52.9398 217.943 53.3131 218.338C53.6971 218.732 54.2518 218.93 54.9771 218.93C55.6918 218.93 56.2358 218.732 56.6091 218.338C56.9931 217.943 57.2438 217.42 57.3611 216.77C57.4891 216.119 57.5531 215.314 57.5531 214.354Z" fill="#A6B1BB"/>
<path d="M35.3893 163.663V162.335H38.3973V173.903H36.9253V163.663H35.3893ZM40.8983 167.999C40.8983 166.165 41.1969 164.735 41.7943 163.711C42.3916 162.677 43.4369 162.159 44.9303 162.159C46.4129 162.159 47.4529 162.677 48.0503 163.711C48.6476 164.735 48.9462 166.165 48.9462 167.999C48.9462 169.866 48.6476 171.317 48.0503 172.351C47.4529 173.386 46.4129 173.903 44.9303 173.903C43.4369 173.903 42.3916 173.386 41.7943 172.351C41.1969 171.317 40.8983 169.866 40.8983 167.999ZM47.5063 167.999C47.5063 167.071 47.4423 166.287 47.3143 165.647C47.1969 164.997 46.9463 164.474 46.5623 164.079C46.1889 163.685 45.6449 163.487 44.9303 163.487C44.2049 163.487 43.6503 163.685 43.2663 164.079C42.8929 164.474 42.6423 164.997 42.5143 165.647C42.3969 166.287 42.3383 167.071 42.3383 167.999C42.3383 168.959 42.3969 169.765 42.5143 170.415C42.6423 171.066 42.8929 171.589 43.2663 171.983C43.6503 172.378 44.2049 172.575 44.9303 172.575C45.6449 172.575 46.1889 172.378 46.5623 171.983C46.9463 171.589 47.1969 171.066 47.3143 170.415C47.4423 169.765 47.5063 168.959 47.5063 167.999ZM50.9451 167.999C50.9451 166.165 51.2438 164.735 51.8411 163.711C52.4385 162.677 53.4838 162.159 54.9771 162.159C56.4598 162.159 57.4998 162.677 58.0971 163.711C58.6945 164.735 58.9931 166.165 58.9931 167.999C58.9931 169.866 58.6945 171.317 58.0971 172.351C57.4998 173.386 56.4598 173.903 54.9771 173.903C53.4838 173.903 52.4385 173.386 51.8411 172.351C51.2438 171.317 50.9451 169.866 50.9451 167.999ZM57.5531 167.999C57.5531 167.071 57.4891 166.287 57.3611 165.647C57.2438 164.997 56.9931 164.474 56.6091 164.079C56.2358 163.685 55.6918 163.487 54.9771 163.487C54.2518 163.487 53.6971 163.685 53.3131 164.079C52.9398 164.474 52.6891 164.997 52.5611 165.647C52.4438 166.287 52.3851 167.071 52.3851 167.999C52.3851 168.959 52.4438 169.765 52.5611 170.415C52.6891 171.066 52.9398 171.589 53.3131 171.983C53.6971 172.378 54.2518 172.575 54.9771 172.575C55.6918 172.575 56.2358 172.378 56.6091 171.983C56.9931 171.589 57.2438 171.066 57.3611 170.415C57.4891 169.765 57.5531 168.959 57.5531 167.999Z" fill="#A6B1BB"/>
<path d="M36.233 117.309V115.981H39.241V127.549H37.769V117.309H36.233ZM41.566 126.381C42.9207 125.293 43.982 124.402 44.75 123.709C45.518 123.005 46.1633 122.274 46.686 121.517C47.2193 120.749 47.486 119.997 47.486 119.261C47.486 118.567 47.3153 118.023 46.974 117.629C46.6433 117.223 46.1047 117.021 45.358 117.021C44.6327 117.021 44.0673 117.25 43.662 117.709C43.2673 118.157 43.054 118.759 43.022 119.517H41.614C41.6567 118.322 42.0193 117.399 42.702 116.749C43.3847 116.098 44.2647 115.773 45.342 115.773C46.4407 115.773 47.31 116.077 47.95 116.685C48.6007 117.293 48.926 118.13 48.926 119.197C48.926 120.082 48.6593 120.946 48.126 121.789C47.6033 122.621 47.006 123.357 46.334 123.997C45.662 124.626 44.8033 125.362 43.758 126.205H49.262V127.421H41.566V126.381ZM50.9451 121.645C50.9451 119.81 51.2438 118.381 51.8411 117.357C52.4385 116.322 53.4838 115.805 54.9771 115.805C56.4598 115.805 57.4998 116.322 58.0971 117.357C58.6945 118.381 58.9931 119.81 58.9931 121.645C58.9931 123.511 58.6945 124.962 58.0971 125.997C57.4998 127.031 56.4598 127.549 54.9771 127.549C53.4838 127.549 52.4385 127.031 51.8411 125.997C51.2438 124.962 50.9451 123.511 50.9451 121.645ZM57.5531 121.645C57.5531 120.717 57.4891 119.933 57.3611 119.293C57.2438 118.642 56.9931 118.119 56.6091 117.725C56.2358 117.33 55.6918 117.133 54.9771 117.133C54.2518 117.133 53.6971 117.33 53.3131 117.725C52.9398 118.119 52.6891 118.642 52.5611 119.293C52.4438 119.933 52.3851 120.717 52.3851 121.645C52.3851 122.605 52.4438 123.41 52.5611 124.061C52.6891 124.711 52.9398 125.234 53.3131 125.629C53.6971 126.023 54.2518 126.221 54.9771 126.221C55.6918 126.221 56.2358 126.023 56.6091 125.629C56.9931 125.234 57.2438 124.711 57.3611 124.061C57.4891 123.41 57.5531 122.605 57.5531 121.645Z" fill="#A6B1BB"/>
<line x1="69.1591" y1="419.274" x2="1040.25" y2="419.274" stroke="#E5E5EF" stroke-width="1.5" stroke-linecap="round"/>
<line x1="69.1591" y1="372.032" x2="1040.25" y2="372.032" stroke="#E5E5EF" stroke-width="1.5" stroke-linecap="round" stroke-dasharray="4 7"/>
<line x1="69.1587" y1="324.785" x2="1040.25" y2="324.785" stroke="#E5E5EF" stroke-width="1.5" stroke-linecap="round" stroke-dasharray="4 7"/>
<line x1="69.1591" y1="277.539" x2="1040.25" y2="277.539" stroke="#E5E5EF" stroke-width="1.5" stroke-linecap="round" stroke-dasharray="4 7"/>
<line x1="69.1591" y1="231.191" x2="1040.25" y2="231.191" stroke="#E5E5EF" stroke-width="1.5" stroke-linecap="round" stroke-dasharray="4 7"/>
<line x1="69.1591" y1="183.045" x2="1040.25" y2="183.045" stroke="#E5E5EF" stroke-width="1.5" stroke-linecap="round" stroke-dasharray="4 7"/>
<rect x="182.307" y="113" width="30" height="205.932" rx="3" fill="#E5E5EF"/>
<rect x="182" y="163.451" width="30" height="256" rx="3" fill="url(#paint0_linear_1_426)"/>
<path d="M191.622 180.169H192.675C193.012 180.169 193.29 180.112 193.509 179.998C193.728 179.88 193.889 179.715 193.994 179.506C194.104 179.292 194.158 179.043 194.158 178.761C194.158 178.506 194.108 178.28 194.008 178.084C193.912 177.883 193.764 177.729 193.563 177.619C193.363 177.505 193.11 177.448 192.805 177.448C192.563 177.448 192.34 177.496 192.135 177.592C191.93 177.688 191.766 177.822 191.643 177.995C191.52 178.168 191.458 178.378 191.458 178.624H189.482C189.482 178.077 189.628 177.601 189.92 177.195C190.216 176.79 190.613 176.473 191.109 176.245C191.606 176.017 192.153 175.903 192.75 175.903C193.424 175.903 194.015 176.013 194.521 176.231C195.026 176.446 195.421 176.762 195.703 177.182C195.986 177.601 196.127 178.12 196.127 178.74C196.127 179.055 196.054 179.36 195.908 179.656C195.762 179.948 195.553 180.212 195.279 180.449C195.01 180.682 194.682 180.868 194.295 181.01C193.908 181.146 193.472 181.215 192.989 181.215H191.622V180.169ZM191.622 181.666V180.647H192.989C193.532 180.647 194.008 180.709 194.418 180.832C194.828 180.955 195.172 181.133 195.45 181.365C195.728 181.593 195.938 181.864 196.079 182.179C196.22 182.489 196.291 182.833 196.291 183.211C196.291 183.676 196.202 184.09 196.024 184.455C195.847 184.815 195.596 185.12 195.272 185.371C194.953 185.622 194.58 185.813 194.151 185.945C193.723 186.073 193.256 186.137 192.75 186.137C192.331 186.137 191.918 186.08 191.513 185.966C191.112 185.847 190.747 185.672 190.419 185.439C190.095 185.202 189.836 184.906 189.64 184.551C189.448 184.191 189.353 183.765 189.353 183.272H191.328C191.328 183.528 191.392 183.756 191.52 183.956C191.647 184.157 191.823 184.314 192.046 184.428C192.274 184.542 192.527 184.599 192.805 184.599C193.119 184.599 193.388 184.542 193.611 184.428C193.839 184.309 194.012 184.145 194.131 183.936C194.254 183.721 194.315 183.473 194.315 183.19C194.315 182.826 194.249 182.534 194.117 182.315C193.985 182.092 193.796 181.928 193.55 181.823C193.304 181.718 193.012 181.666 192.675 181.666H191.622ZM204.617 182.281V183.826H197.446L197.351 182.63L201.5 176.047H203.065L201.37 178.884L199.306 182.281H204.617ZM203.489 176.047V186H201.521V176.047H203.489Z" fill="white"/>
<rect x="361.543" y="113" width="30" height="211.307" rx="3" fill="#E5E5EF"/>
<rect x="361.905" y="240.451" width="30" height="179" rx="3" fill="url(#paint1_linear_1_426)"/>
<path d="M371.622 258.169H372.675C373.012 258.169 373.29 258.112 373.509 257.998C373.727 257.88 373.889 257.715 373.994 257.506C374.103 257.292 374.158 257.043 374.158 256.761C374.158 256.506 374.108 256.28 374.008 256.084C373.912 255.883 373.764 255.729 373.563 255.619C373.363 255.505 373.11 255.448 372.805 255.448C372.563 255.448 372.34 255.496 372.135 255.592C371.93 255.688 371.766 255.822 371.642 255.995C371.519 256.168 371.458 256.378 371.458 256.624H369.482C369.482 256.077 369.628 255.601 369.92 255.195C370.216 254.79 370.613 254.473 371.109 254.245C371.606 254.017 372.153 253.903 372.75 253.903C373.424 253.903 374.015 254.013 374.52 254.231C375.026 254.446 375.42 254.762 375.703 255.182C375.986 255.601 376.127 256.12 376.127 256.74C376.127 257.055 376.054 257.36 375.908 257.656C375.762 257.948 375.553 258.212 375.279 258.449C375.01 258.682 374.682 258.868 374.295 259.01C373.907 259.146 373.472 259.215 372.989 259.215H371.622V258.169ZM371.622 259.666V258.647H372.989C373.531 258.647 374.008 258.709 374.418 258.832C374.828 258.955 375.172 259.133 375.45 259.365C375.728 259.593 375.938 259.864 376.079 260.179C376.22 260.489 376.291 260.833 376.291 261.211C376.291 261.676 376.202 262.09 376.024 262.455C375.847 262.815 375.596 263.12 375.272 263.371C374.953 263.622 374.58 263.813 374.151 263.945C373.723 264.073 373.256 264.137 372.75 264.137C372.331 264.137 371.918 264.08 371.513 263.966C371.112 263.847 370.747 263.672 370.419 263.439C370.095 263.202 369.835 262.906 369.64 262.551C369.448 262.191 369.352 261.765 369.352 261.272H371.328C371.328 261.528 371.392 261.756 371.519 261.956C371.647 262.157 371.822 262.314 372.046 262.428C372.274 262.542 372.527 262.599 372.805 262.599C373.119 262.599 373.388 262.542 373.611 262.428C373.839 262.309 374.012 262.145 374.131 261.936C374.254 261.721 374.315 261.473 374.315 261.19C374.315 260.826 374.249 260.534 374.117 260.315C373.985 260.092 373.796 259.928 373.55 259.823C373.304 259.718 373.012 259.666 372.675 259.666H371.622ZM384.617 260.281V261.826H377.446L377.35 260.63L381.5 254.047H383.065L381.37 256.884L379.306 260.281H384.617ZM383.489 254.047V264H381.52V254.047H383.489Z" fill="white"/>
<rect x="541.141" y="113" width="30" height="235" rx="3" fill="#E5E5EF"/>
<rect x="541.424" y="284.578" width="30" height="134.404" rx="3" fill="url(#paint2_linear_1_426)"/>
<path d="M550.622 302.169H551.675C552.012 302.169 552.29 302.112 552.509 301.998C552.727 301.88 552.889 301.715 552.994 301.506C553.103 301.292 553.158 301.043 553.158 300.761C553.158 300.506 553.108 300.28 553.008 300.084C552.912 299.883 552.764 299.729 552.563 299.619C552.363 299.505 552.11 299.448 551.804 299.448C551.563 299.448 551.34 299.496 551.135 299.592C550.929 299.688 550.765 299.822 550.642 299.995C550.519 300.168 550.458 300.378 550.458 300.624H548.482C548.482 300.077 548.628 299.601 548.92 299.195C549.216 298.79 549.612 298.473 550.109 298.245C550.606 298.017 551.153 297.903 551.75 297.903C552.424 297.903 553.014 298.013 553.52 298.231C554.026 298.446 554.42 298.762 554.703 299.182C554.985 299.601 555.127 300.12 555.127 300.74C555.127 301.055 555.054 301.36 554.908 301.656C554.762 301.948 554.552 302.212 554.279 302.449C554.01 302.682 553.682 302.868 553.295 303.01C552.907 303.146 552.472 303.215 551.989 303.215H550.622V302.169ZM550.622 303.666V302.647H551.989C552.531 302.647 553.008 302.709 553.418 302.832C553.828 302.955 554.172 303.133 554.45 303.365C554.728 303.593 554.938 303.864 555.079 304.179C555.22 304.489 555.291 304.833 555.291 305.211C555.291 305.676 555.202 306.09 555.024 306.455C554.846 306.815 554.596 307.12 554.272 307.371C553.953 307.622 553.58 307.813 553.151 307.945C552.723 308.073 552.256 308.137 551.75 308.137C551.33 308.137 550.918 308.08 550.512 307.966C550.111 307.847 549.747 307.672 549.419 307.439C549.095 307.202 548.835 306.906 548.639 306.551C548.448 306.191 548.352 305.765 548.352 305.272H550.328C550.328 305.528 550.392 305.756 550.519 305.956C550.647 306.157 550.822 306.314 551.046 306.428C551.274 306.542 551.526 306.599 551.804 306.599C552.119 306.599 552.388 306.542 552.611 306.428C552.839 306.309 553.012 306.145 553.131 305.936C553.254 305.721 553.315 305.473 553.315 305.19C553.315 304.826 553.249 304.534 553.117 304.315C552.985 304.092 552.796 303.928 552.55 303.823C552.303 303.718 552.012 303.666 551.675 303.666H550.622ZM563.617 304.281V305.826H556.446L556.35 304.63L560.5 298.047H562.065L560.37 300.884L558.305 304.281H563.617ZM562.489 298.047V308H560.52V298.047H562.489Z" fill="white"/>
<rect x="720.686" y="113" width="30" height="211.307" rx="3" fill="#E5E5EF"/>
<rect x="720.66" y="212.451" width="30" height="207" rx="3" fill="url(#paint3_linear_1_426)"/>
<path d="M730.622 230.169H731.675C732.012 230.169 732.29 230.112 732.509 229.998C732.728 229.88 732.889 229.715 732.994 229.506C733.104 229.292 733.158 229.043 733.158 228.761C733.158 228.506 733.108 228.28 733.008 228.084C732.912 227.883 732.764 227.729 732.564 227.619C732.363 227.505 732.11 227.448 731.805 227.448C731.563 227.448 731.34 227.496 731.135 227.592C730.93 227.688 730.766 227.822 730.643 227.995C730.52 228.168 730.458 228.378 730.458 228.624H728.483C728.483 228.077 728.628 227.601 728.92 227.195C729.216 226.79 729.613 226.473 730.109 226.245C730.606 226.017 731.153 225.903 731.75 225.903C732.425 225.903 733.015 226.013 733.521 226.231C734.026 226.446 734.421 226.762 734.703 227.182C734.986 227.601 735.127 228.12 735.127 228.74C735.127 229.055 735.054 229.36 734.908 229.656C734.762 229.948 734.553 230.212 734.279 230.449C734.011 230.682 733.682 230.868 733.295 231.01C732.908 231.146 732.472 231.215 731.989 231.215H730.622V230.169ZM730.622 231.666V230.647H731.989C732.532 230.647 733.008 230.709 733.418 230.832C733.828 230.955 734.172 231.133 734.45 231.365C734.728 231.593 734.938 231.864 735.079 232.179C735.22 232.489 735.291 232.833 735.291 233.211C735.291 233.676 735.202 234.09 735.025 234.455C734.847 234.815 734.596 235.12 734.273 235.371C733.954 235.622 733.58 235.813 733.151 235.945C732.723 236.073 732.256 236.137 731.75 236.137C731.331 236.137 730.918 236.08 730.513 235.966C730.112 235.847 729.747 235.672 729.419 235.439C729.095 235.202 728.836 234.906 728.64 234.551C728.448 234.191 728.353 233.765 728.353 233.272H730.328C730.328 233.528 730.392 233.756 730.52 233.956C730.647 234.157 730.823 234.314 731.046 234.428C731.274 234.542 731.527 234.599 731.805 234.599C732.119 234.599 732.388 234.542 732.611 234.428C732.839 234.309 733.012 234.145 733.131 233.936C733.254 233.721 733.316 233.473 733.316 233.19C733.316 232.826 733.249 232.534 733.117 232.315C732.985 232.092 732.796 231.928 732.55 231.823C732.304 231.718 732.012 231.666 731.675 231.666H730.622ZM743.617 232.281V233.826H736.446L736.351 232.63L740.5 226.047H742.066L740.37 228.884L738.306 232.281H743.617ZM742.489 226.047V236H740.521V226.047H742.489Z" fill="white"/>
<rect x="900" y="113" width="30" height="165.752" rx="3" fill="#E5E5EF"/>
<rect x="899.923" y="247.451" width="30" height="172" rx="3" fill="url(#paint4_linear_1_426)"/>
<path d="M909.622 266.169H910.675C911.012 266.169 911.29 266.112 911.509 265.998C911.728 265.88 911.889 265.715 911.994 265.506C912.104 265.292 912.158 265.043 912.158 264.761C912.158 264.506 912.108 264.28 912.008 264.084C911.912 263.883 911.764 263.729 911.563 263.619C911.363 263.505 911.11 263.448 910.805 263.448C910.563 263.448 910.34 263.496 910.135 263.592C909.93 263.688 909.766 263.822 909.643 263.995C909.52 264.168 909.458 264.378 909.458 264.624H907.482C907.482 264.077 907.628 263.601 907.92 263.195C908.216 262.79 908.613 262.473 909.109 262.245C909.606 262.017 910.153 261.903 910.75 261.903C911.424 261.903 912.015 262.013 912.521 262.231C913.026 262.446 913.421 262.762 913.703 263.182C913.986 263.601 914.127 264.12 914.127 264.74C914.127 265.055 914.054 265.36 913.908 265.656C913.762 265.948 913.553 266.212 913.279 266.449C913.01 266.682 912.682 266.868 912.295 267.01C911.908 267.146 911.472 267.215 910.989 267.215H909.622V266.169ZM909.622 267.666V266.647H910.989C911.532 266.647 912.008 266.709 912.418 266.832C912.828 266.955 913.172 267.133 913.45 267.365C913.728 267.593 913.938 267.864 914.079 268.179C914.22 268.489 914.291 268.833 914.291 269.211C914.291 269.676 914.202 270.09 914.024 270.455C913.847 270.815 913.596 271.12 913.272 271.371C912.953 271.622 912.58 271.813 912.151 271.945C911.723 272.073 911.256 272.137 910.75 272.137C910.331 272.137 909.918 272.08 909.513 271.966C909.112 271.847 908.747 271.672 908.419 271.439C908.095 271.202 907.836 270.906 907.64 270.551C907.448 270.191 907.353 269.765 907.353 269.272H909.328C909.328 269.528 909.392 269.756 909.52 269.956C909.647 270.157 909.823 270.314 910.046 270.428C910.274 270.542 910.527 270.599 910.805 270.599C911.119 270.599 911.388 270.542 911.611 270.428C911.839 270.309 912.012 270.145 912.131 269.936C912.254 269.721 912.315 269.473 912.315 269.19C912.315 268.826 912.249 268.534 912.117 268.315C911.985 268.092 911.796 267.928 911.55 267.823C911.304 267.718 911.012 267.666 910.675 267.666H909.622ZM922.617 268.281V269.826H915.446L915.351 268.63L919.5 262.047H921.065L919.37 264.884L917.306 268.281H922.617ZM921.489 262.047V272H919.521V262.047H921.489Z" fill="white"/>
<line x1="32" y1="83.5" x2="1045" y2="83.5" stroke="#E5E5EF"/>
<path d="M44.474 38.556V41.57H40.382V54H36.62V41.57H32.528V38.556H44.474ZM50.124 43.77C50.564 43.0953 51.114 42.5673 51.774 42.186C52.434 41.79 53.1674 41.592 53.974 41.592V45.574H52.94C52.0014 45.574 51.2974 45.7793 50.828 46.19C50.3587 46.586 50.124 47.29 50.124 48.302V54H46.362V41.724H50.124V43.77ZM55.0242 47.84C55.0242 46.5787 55.2589 45.4713 55.7282 44.518C56.2122 43.5647 56.8649 42.8313 57.6862 42.318C58.5075 41.8047 59.4242 41.548 60.4362 41.548C61.3015 41.548 62.0569 41.724 62.7022 42.076C63.3622 42.428 63.8682 42.89 64.2202 43.462V41.724H67.9822V54H64.2202V52.262C63.8535 52.834 63.3402 53.296 62.6802 53.648C62.0349 54 61.2795 54.176 60.4142 54.176C59.4169 54.176 58.5075 53.9193 57.6862 53.406C56.8649 52.878 56.2122 52.1373 55.7282 51.184C55.2589 50.216 55.0242 49.1013 55.0242 47.84ZM64.2202 47.862C64.2202 46.9233 63.9562 46.1827 63.4282 45.64C62.9149 45.0973 62.2842 44.826 61.5362 44.826C60.7882 44.826 60.1502 45.0973 59.6222 45.64C59.1089 46.168 58.8522 46.9013 58.8522 47.84C58.8522 48.7787 59.1089 49.5267 59.6222 50.084C60.1502 50.6267 60.7882 50.898 61.5362 50.898C62.2842 50.898 62.9149 50.6267 63.4282 50.084C63.9562 49.5413 64.2202 48.8007 64.2202 47.862ZM69.9558 47.862C69.9558 46.586 70.2125 45.4713 70.7258 44.518C71.2538 43.5647 71.9798 42.8313 72.9038 42.318C73.8425 41.8047 74.9132 41.548 76.1158 41.548C77.6558 41.548 78.9392 41.9513 79.9658 42.758C81.0072 43.5647 81.6892 44.7013 82.0118 46.168H78.0078C77.6705 45.2293 77.0178 44.76 76.0498 44.76C75.3605 44.76 74.8105 45.0313 74.3998 45.574C73.9892 46.102 73.7838 46.8647 73.7838 47.862C73.7838 48.8593 73.9892 49.6293 74.3998 50.172C74.8105 50.7 75.3605 50.964 76.0498 50.964C77.0178 50.964 77.6705 50.4947 78.0078 49.556H82.0118C81.6892 50.9933 81.0072 52.1227 79.9658 52.944C78.9245 53.7653 77.6412 54.176 76.1158 54.176C74.9132 54.176 73.8425 53.9193 72.9038 53.406C71.9798 52.8927 71.2538 52.1593 70.7258 51.206C70.2125 50.2527 69.9558 49.138 69.9558 47.862ZM91.5262 54L87.7862 48.852V54H84.0242V37.72H87.7862V46.718L91.5042 41.724H96.1462L91.0422 47.884L96.1902 54H91.5262ZM99.5158 40.448C98.8558 40.448 98.3131 40.2573 97.8878 39.876C97.4771 39.48 97.2718 38.996 97.2718 38.424C97.2718 37.8373 97.4771 37.3533 97.8878 36.972C98.3131 36.576 98.8558 36.378 99.5158 36.378C100.161 36.378 100.689 36.576 101.1 36.972C101.525 37.3533 101.738 37.8373 101.738 38.424C101.738 38.996 101.525 39.48 101.1 39.876C100.689 40.2573 100.161 40.448 99.5158 40.448ZM101.386 41.724V54H97.6238V41.724H101.386ZM111.592 41.592C113.029 41.592 114.173 42.0613 115.024 43C115.889 43.924 116.322 45.2 116.322 46.828V54H112.582V47.334C112.582 46.5127 112.369 45.8747 111.944 45.42C111.519 44.9653 110.947 44.738 110.228 44.738C109.509 44.738 108.937 44.9653 108.512 45.42C108.087 45.8747 107.874 46.5127 107.874 47.334V54H104.112V41.724H107.874V43.352C108.255 42.8093 108.769 42.384 109.414 42.076C110.059 41.7533 110.785 41.592 111.592 41.592ZM123.6 41.548C124.466 41.548 125.221 41.724 125.866 42.076C126.526 42.428 127.032 42.89 127.384 43.462V41.724H131.146V53.978C131.146 55.1073 130.919 56.1267 130.464 57.036C130.024 57.96 129.342 58.6933 128.418 59.236C127.509 59.7787 126.372 60.05 125.008 60.05C123.19 60.05 121.716 59.6173 120.586 58.752C119.457 57.9013 118.812 56.7427 118.65 55.276H122.368C122.486 55.7453 122.764 56.112 123.204 56.376C123.644 56.6547 124.187 56.794 124.832 56.794C125.61 56.794 126.226 56.5667 126.68 56.112C127.15 55.672 127.384 54.9607 127.384 53.978V52.24C127.018 52.812 126.512 53.2813 125.866 53.648C125.221 54 124.466 54.176 123.6 54.176C122.588 54.176 121.672 53.9193 120.85 53.406C120.029 52.878 119.376 52.1373 118.892 51.184C118.423 50.216 118.188 49.1013 118.188 47.84C118.188 46.5787 118.423 45.4713 118.892 44.518C119.376 43.5647 120.029 42.8313 120.85 42.318C121.672 41.8047 122.588 41.548 123.6 41.548ZM127.384 47.862C127.384 46.9233 127.12 46.1827 126.592 45.64C126.079 45.0973 125.448 44.826 124.7 44.826C123.952 44.826 123.314 45.0973 122.786 45.64C122.273 46.168 122.016 46.9013 122.016 47.84C122.016 48.7787 122.273 49.5267 122.786 50.084C123.314 50.6267 123.952 50.898 124.7 50.898C125.448 50.898 126.079 50.6267 126.592 50.084C127.12 49.5413 127.384 48.8007 127.384 47.862ZM142.292 37.72V54H138.53V37.72H142.292ZM150.606 54.176C149.404 54.176 148.318 53.9193 147.35 53.406C146.397 52.8927 145.642 52.1593 145.084 51.206C144.542 50.2527 144.27 49.138 144.27 47.862C144.27 46.6007 144.549 45.4933 145.106 44.54C145.664 43.572 146.426 42.8313 147.394 42.318C148.362 41.8047 149.448 41.548 150.65 41.548C151.853 41.548 152.938 41.8047 153.906 42.318C154.874 42.8313 155.637 43.572 156.194 44.54C156.752 45.4933 157.03 46.6007 157.03 47.862C157.03 49.1233 156.744 50.238 156.172 51.206C155.615 52.1593 154.845 52.8927 153.862 53.406C152.894 53.9193 151.809 54.176 150.606 54.176ZM150.606 50.92C151.325 50.92 151.934 50.656 152.432 50.128C152.946 49.6 153.202 48.8447 153.202 47.862C153.202 46.8793 152.953 46.124 152.454 45.596C151.97 45.068 151.369 44.804 150.65 44.804C149.917 44.804 149.308 45.068 148.824 45.596C148.34 46.1093 148.098 46.8647 148.098 47.862C148.098 48.8447 148.333 49.6 148.802 50.128C149.286 50.656 149.888 50.92 150.606 50.92ZM171.566 41.724L163.866 59.83H159.818L162.634 53.582L157.64 41.724H161.842L164.68 49.402L167.496 41.724H171.566ZM174.819 40.448C174.159 40.448 173.616 40.2573 173.191 39.876C172.78 39.48 172.575 38.996 172.575 38.424C172.575 37.8373 172.78 37.3533 173.191 36.972C173.616 36.576 174.159 36.378 174.819 36.378C175.464 36.378 175.992 36.576 176.403 36.972C176.828 37.3533 177.041 37.8373 177.041 38.424C177.041 38.996 176.828 39.48 176.403 39.876C175.992 40.2573 175.464 40.448 174.819 40.448ZM176.689 41.724V54H172.927V41.724H176.689ZM186.961 41.592C188.369 41.592 189.498 42.0613 190.349 43C191.199 43.924 191.625 45.2 191.625 46.828V54H187.885V47.334C187.885 46.5127 187.672 45.8747 187.247 45.42C186.821 44.9653 186.249 44.738 185.531 44.738C184.812 44.738 184.24 44.9653 183.815 45.42C183.389 45.8747 183.177 46.5127 183.177 47.334V54H179.415V37.72H183.177V43.374C183.558 42.8313 184.079 42.3987 184.739 42.076C185.399 41.7533 186.139 41.592 186.961 41.592ZM193.491 47.84C193.491 46.5787 193.726 45.4713 194.195 44.518C194.679 43.5647 195.332 42.8313 196.153 42.318C196.974 41.8047 197.891 41.548 198.903 41.548C199.768 41.548 200.524 41.724 201.169 42.076C201.829 42.428 202.335 42.89 202.687 43.462V41.724H206.449V54H202.687V52.262C202.32 52.834 201.807 53.296 201.147 53.648C200.502 54 199.746 54.176 198.881 54.176C197.884 54.176 196.974 53.9193 196.153 53.406C195.332 52.878 194.679 52.1373 194.195 51.184C193.726 50.216 193.491 49.1013 193.491 47.84ZM202.687 47.862C202.687 46.9233 202.423 46.1827 201.895 45.64C201.382 45.0973 200.751 44.826 200.003 44.826C199.255 44.826 198.617 45.0973 198.089 45.64C197.576 46.168 197.319 46.9013 197.319 47.84C197.319 48.7787 197.576 49.5267 198.089 50.084C198.617 50.6267 199.255 50.898 200.003 50.898C200.751 50.898 201.382 50.6267 201.895 50.084C202.423 49.5413 202.687 48.8007 202.687 47.862ZM214.165 54.176C213.094 54.176 212.141 53.9927 211.305 53.626C210.469 53.2593 209.809 52.7607 209.325 52.13C208.841 51.4847 208.569 50.766 208.511 49.974H212.229C212.273 50.3993 212.471 50.744 212.823 51.008C213.175 51.272 213.607 51.404 214.121 51.404C214.59 51.404 214.949 51.316 215.199 51.14C215.463 50.9493 215.595 50.7073 215.595 50.414C215.595 50.062 215.411 49.8053 215.045 49.644C214.678 49.468 214.084 49.2773 213.263 49.072C212.383 48.8667 211.649 48.654 211.063 48.434C210.476 48.1993 209.97 47.84 209.545 47.356C209.119 46.8573 208.907 46.19 208.907 45.354C208.907 44.65 209.097 44.012 209.479 43.44C209.875 42.8533 210.447 42.3913 211.195 42.054C211.957 41.7167 212.859 41.548 213.901 41.548C215.441 41.548 216.651 41.9293 217.531 42.692C218.425 43.4547 218.939 44.4667 219.071 45.728H215.595C215.536 45.3027 215.345 44.9653 215.023 44.716C214.715 44.4667 214.304 44.342 213.791 44.342C213.351 44.342 213.013 44.43 212.779 44.606C212.544 44.7673 212.427 44.9947 212.427 45.288C212.427 45.64 212.61 45.904 212.977 46.08C213.358 46.256 213.945 46.432 214.737 46.608C215.646 46.8427 216.387 47.0773 216.959 47.312C217.531 47.532 218.029 47.8987 218.455 48.412C218.895 48.9107 219.122 49.5853 219.137 50.436C219.137 51.1547 218.931 51.8 218.521 52.372C218.125 52.9293 217.545 53.3693 216.783 53.692C216.035 54.0147 215.162 54.176 214.165 54.176ZM223.33 40.448C222.67 40.448 222.128 40.2573 221.702 39.876C221.292 39.48 221.086 38.996 221.086 38.424C221.086 37.8373 221.292 37.3533 221.702 36.972C222.128 36.576 222.67 36.378 223.33 36.378C223.976 36.378 224.504 36.576 224.914 36.972C225.34 37.3533 225.552 37.8373 225.552 38.424C225.552 38.996 225.34 39.48 224.914 39.876C224.504 40.2573 223.976 40.448 223.33 40.448ZM225.2 41.724V54H221.438V41.724H225.2Z" fill="#10384F"/>
<defs>
<linearGradient id="paint0_linear_1_426" x1="197" y1="163.451" x2="197" y2="419.451" gradientUnits="userSpaceOnUse">
<stop stop-color="#4A3AFF"/>
<stop offset="1" stop-color="#6D3AFF"/>
</linearGradient>
<linearGradient id="paint1_linear_1_426" x1="376.905" y1="240.451" x2="376.905" y2="419.451" gradientUnits="userSpaceOnUse">
<stop stop-color="#4A3AFF"/>
<stop offset="1" stop-color="#6D3AFF"/>
</linearGradient>
<linearGradient id="paint2_linear_1_426" x1="556.424" y1="284.578" x2="556.424" y2="418.982" gradientUnits="userSpaceOnUse">
<stop stop-color="#4A3AFF"/>
<stop offset="1" stop-color="#6D3AFF"/>
</linearGradient>
<linearGradient id="paint3_linear_1_426" x1="735.66" y1="212.451" x2="735.66" y2="419.451" gradientUnits="userSpaceOnUse">
<stop stop-color="#4A3AFF"/>
<stop offset="1" stop-color="#6D3AFF"/>
</linearGradient>
<linearGradient id="paint4_linear_1_426" x1="914.923" y1="247.451" x2="914.923" y2="419.451" gradientUnits="userSpaceOnUse">
<stop stop-color="#4A3AFF"/>
<stop offset="1" stop-color="#6D3AFF"/>
</linearGradient>
</defs>
</svg>
