<svg width="250" height="39" viewBox="0 0 250 39" fill="none" xmlns="http://www.w3.org/2000/svg">
<path d="M2 26.5761C2 26.5761 11.5789 24.4863 22.4695 29.5067C43.1828 39.0552 44.3644 21.5696 52.0451 13.1384C59.0721 5.42482 64.8918 10.1312 72.7158 19.5643C78.4864 26.5216 86.8963 38.2003 95.6056 36.3202C103.567 34.6015 109.211 20.9041 120.246 17.4206C128.992 14.6597 136.099 22.2446 146.171 19.5643C159.833 15.9282 161.868 2 171.632 2C183.684 2 191.232 26.8537 202.195 26.8537C213.094 26.8537 218.701 2.28418 230.623 9.74278C239.737 15.4449 248.5 26.5763 248.5 26.5763" stroke="#0062FF" stroke-width="3" stroke-linecap="round" stroke-linejoin="round"/>
</svg>
